<svg xmlns="http://www.w3.org/2000/svg" xmlns:xlink="http://www.w3.org/1999/xlink" xmlns:lucid="lucid" width="820" height="747"><g transform="translate(-40 -32)" lucid:page-tab-id="0_0"><path d="M60 52h300v177H60z" stroke="#83bbe5" fill="#19355a"/><path d="M60 89.6h300M60 148.7h300" stroke="#83bbe5" fill="none"/><use xlink:href="#a" transform="matrix(1,0,0,1,68,60) translate(107.57499999999999 14.6)"/><use xlink:href="#b" transform="matrix(1,0,0,1,72,97.6) translate(0 25.6)"/><use xlink:href="#c" transform="matrix(1,0,0,1,72,97.6) translate(10.95 25.6)"/><use xlink:href="#d" transform="matrix(1,0,0,1,72,97.6) translate(100.85000000000001 25.6)"/><use xlink:href="#e" transform="matrix(1,0,0,1,72,156.7) translate(0 25.299999999999997)"/><use xlink:href="#f" transform="matrix(1,0,0,1,72,156.7) translate(15.5 25.299999999999997)"/><use xlink:href="#e" transform="matrix(1,0,0,1,72,156.7) translate(0 46.9)"/><use xlink:href="#g" transform="matrix(1,0,0,1,72,156.7) translate(15.5 46.9)"/><path d="M480 300h360v177H480z" stroke="#83bbe5" fill="#19355a"/><path d="M480 337.6h360m-360 59.1h360" stroke="#83bbe5" fill="none"/><use xlink:href="#h" transform="matrix(1,0,0,1,488,308) translate(105.64999999999999 14.6)"/><use xlink:href="#b" transform="matrix(1,0,0,1,492,345.6) translate(0 25.6)"/><use xlink:href="#i" transform="matrix(1,0,0,1,492,345.6) translate(10.95 25.6)"/><use xlink:href="#j" transform="matrix(1,0,0,1,492,345.6) translate(84.9 25.6)"/><use xlink:href="#e" transform="matrix(1,0,0,1,492,404.70000000000005) translate(0 25.299999999999997)"/><use xlink:href="#k" transform="matrix(1,0,0,1,492,404.70000000000005) translate(15.5 25.299999999999997)"/><use xlink:href="#e" transform="matrix(1,0,0,1,492,404.70000000000005) translate(0 46.9)"/><use xlink:href="#l" transform="matrix(1,0,0,1,492,404.70000000000005) translate(15.5 46.9)"/><path d="M391.25 140.5H400v-.5h38.5" stroke="#83bbe5" stroke-width="2" fill="none"/><path d="M391.9 140.5l-15.14 14.85-14.85-14.85 14.86-14.85z" fill="#fff"/><path d="M393.34 140.5l-16.58 16.26-16.26-16.26 16.26-16.26zm-30 0l13.43 13.44 13.72-13.44-13.73-13.44zM439.5 141h-1.03v-2h1.03z" fill="#83bbe5"/><use xlink:href="#m" transform="matrix(1,0,0,1,412,114.4) translate(0 14.4)"/><path d="M480 560h360v199H480z" stroke="#83bbe5" fill="#19355a"/><path d="M480 597.6h360m-360 80.7h360" stroke="#83bbe5" fill="none"/><use xlink:href="#n" transform="matrix(1,0,0,1,488,568) translate(92.65 14.6)"/><use xlink:href="#b" transform="matrix(1,0,0,1,492,605.6) translate(0 25.299999999999997)"/><use xlink:href="#o" transform="matrix(1,0,0,1,492,605.6) translate(10.95 25.299999999999997)"/><use xlink:href="#p" transform="matrix(1,0,0,1,492,605.6) translate(53.849999999999994 25.299999999999997)"/><use xlink:href="#b" transform="matrix(1,0,0,1,492,605.6) translate(0 46.9)"/><use xlink:href="#q" transform="matrix(1,0,0,1,492,605.6) translate(10.95 46.9)"/><use xlink:href="#r" transform="matrix(1,0,0,1,492,605.6) translate(99.8 46.9)"/><use xlink:href="#e" transform="matrix(1,0,0,1,492,686.3000000000001) translate(0 25.299999999999997)"/><use xlink:href="#s" transform="matrix(1,0,0,1,492,686.3000000000001) translate(15.5 25.299999999999997)"/><use xlink:href="#e" transform="matrix(1,0,0,1,492,686.3000000000001) translate(0 46.9)"/><use xlink:href="#l" transform="matrix(1,0,0,1,492,686.3000000000001) translate(15.5 46.9)"/><path d="M660 508.25v50.25" stroke="#83bbe5" stroke-width="2" fill="none"/><path d="M674.85 493.76L660 508.9l-14.85-15.14L660 478.9z" fill="#fff"/><path d="M676.26 493.76L660 510.34l-16.26-16.58L660 477.5zm-29.7 0L660 507.5l13.44-13.73L660 480.33zM661 559.5h-2v-1.03h2z" fill="#83bbe5"/><use xlink:href="#m" transform="matrix(1,0,0,1,668,537.7) translate(0 14.4)"/><path d="M440 80h220v120H440z" stroke="#83bbe5" fill="#19355a"/><path d="M440 139.2h220" stroke="#83bbe5" fill="none"/><g><use xlink:href="#t" transform="matrix(1,0,0,1,448,88) translate(43.574999999999996 14.799999999999999)"/><use xlink:href="#u" transform="matrix(1,0,0,1,448,88) translate(65.07499999999999 36.4)"/></g><g><use xlink:href="#v" transform="matrix(1,0,0,1,452,147.2) translate(0 26.1)"/></g><path d="M60 320h380v221H60z" stroke="#83bbe5" fill="#19355a"/><path d="M60 357.6h380M60 459.9h380" stroke="#83bbe5" fill="none"/><g><use xlink:href="#w" transform="matrix(1,0,0,1,68,328) translate(113.125 14.6)"/></g><g><use xlink:href="#b" transform="matrix(1,0,0,1,72,365.6) translate(0 25.5)"/><use xlink:href="#x" transform="matrix(1,0,0,1,72,365.6) translate(10.95 25.5)"/><use xlink:href="#y" transform="matrix(1,0,0,1,72,365.6) translate(62.849999999999994 25.5)"/><use xlink:href="#b" transform="matrix(1,0,0,1,72,365.6) translate(0 47.1)"/><use xlink:href="#z" transform="matrix(1,0,0,1,72,365.6) translate(10.95 47.1)"/><use xlink:href="#A" transform="matrix(1,0,0,1,72,365.6) translate(63.900000000000006 47.1)"/><use xlink:href="#B" transform="matrix(1,0,0,1,72,365.6) translate(87.85000000000001 47.1)"/><use xlink:href="#C" transform="matrix(1,0,0,1,72,365.6) translate(103.35000000000001 47.1)"/><use xlink:href="#b" transform="matrix(1,0,0,1,72,365.6) translate(0 68.7)"/><use xlink:href="#D" transform="matrix(1,0,0,1,72,365.6) translate(10.95 68.7)"/><use xlink:href="#A" transform="matrix(1,0,0,1,72,365.6) translate(80.9 68.7)"/><use xlink:href="#B" transform="matrix(1,0,0,1,72,365.6) translate(104.85000000000001 68.7)"/><use xlink:href="#E" transform="matrix(1,0,0,1,72,365.6) translate(120.35000000000001 68.7)"/></g><g><use xlink:href="#e" transform="matrix(1,0,0,1,72,467.90000000000003) translate(0 25.299999999999997)"/><use xlink:href="#F" transform="matrix(1,0,0,1,72,467.90000000000003) translate(15.5 25.299999999999997)"/><use xlink:href="#e" transform="matrix(1,0,0,1,72,467.90000000000003) translate(0 46.9)"/><use xlink:href="#l" transform="matrix(1,0,0,1,72,467.90000000000003) translate(15.5 46.9)"/></g><path d="M659.44 298.67l-53.24-77.95" fill="none"/><path d="M659.44 298.67l-2.22-3.24m-4.44-6.5l-4.43-6.5m-4.44-6.5l-4.43-6.5m-4.43-6.5l-4.44-6.48m-4.44-6.5l-4.43-6.5m-4.44-6.5l-4.45-6.5m-4.43-6.48l-2.22-3.25" stroke="#83bbe5" stroke-width="2" fill="none"/><path d="M661.2 299.5h-2.4l-.2-.28 1.65-1.13z" fill="#83bbe5"/><path d="M616.14 212.72l-21 14.35-1.64-24.95z" fill="#fff"/><path d="M618.16 212.55l-23.92 16.33-1.85-28.38zM596 225.25l18.13-12.37-19.52-9.14z" fill="#83bbe5"/><path d="M398 318.6l46.55-96.07" fill="none"/><path d="M398 318.6l1.65-3.43m3.33-6.86l3.33-6.85m3.33-6.87l3.33-6.86m3.32-6.86l3.33-6.86m3.33-6.86l3.33-6.87m3.32-6.86l3.33-6.85m3.34-6.86l3.32-6.87m3.33-6.87l1.65-3.43" stroke="#83bbe5" stroke-width="2" fill="none"/><path d="M398.9 319l-.23.5h-2.23l.66-1.36z" fill="#83bbe5"/><path d="M456.44 227.18l-22.9-11.1 20.83-13.8z" fill="#fff"/><path d="M457.58 228.85l-26.06-12.63 23.7-15.72zm-22.03-12.9l19.75 9.57-1.8-21.48z" fill="#83bbe5"/><defs><path fill="#e5e5e5" d="M30-248c87 1 191-15 191 75 0 78-77 80-158 76V0H30v-248zm33 125c57 0 124 11 124-50 0-59-68-47-124-48v98" id="G"/><path fill="#e5e5e5" d="M114-163C36-179 61-72 57 0H25l-1-190h30c1 12-1 29 2 39 6-27 23-49 58-41v29" id="H"/><path fill="#e5e5e5" d="M100-194c62-1 85 37 85 99 1 63-27 99-86 99S16-35 15-95c0-66 28-99 85-99zM99-20c44 1 53-31 53-75 0-43-8-75-51-75s-53 32-53 75 10 74 51 75" id="I"/><path fill="#e5e5e5" d="M177-190C167-65 218 103 67 71c-23-6-38-20-44-43l32-5c15 47 100 32 89-28v-30C133-14 115 1 83 1 29 1 15-40 15-95c0-56 16-97 71-98 29-1 48 16 59 35 1-10 0-23 2-32h30zM94-22c36 0 50-32 50-73 0-42-14-75-50-75-39 0-46 34-46 75s6 73 46 73" id="J"/><path fill="#e5e5e5" d="M141-36C126-15 110 5 73 4 37 3 15-17 15-53c-1-64 63-63 125-63 3-35-9-54-41-54-24 1-41 7-42 31l-33-3c5-37 33-52 76-52 45 0 72 20 72 64v82c-1 20 7 32 28 27v20c-31 9-61-2-59-35zM48-53c0 20 12 33 32 33 41-3 63-29 60-74-43 2-92-5-92 41" id="K"/><path fill="#e5e5e5" d="M210-169c-67 3-38 105-44 169h-31v-121c0-29-5-50-35-48C34-165 62-65 56 0H25l-1-190h30c1 10-1 24 2 32 10-44 99-50 107 0 11-21 27-35 58-36 85-2 47 119 55 194h-31v-121c0-29-5-49-35-48" id="L"/><g id="a"><use transform="matrix(0.05,0,0,0.05,0,0)" xlink:href="#G"/><use transform="matrix(0.05,0,0,0.05,12,0)" xlink:href="#H"/><use transform="matrix(0.05,0,0,0.05,17.95,0)" xlink:href="#I"/><use transform="matrix(0.05,0,0,0.05,27.950000000000003,0)" xlink:href="#J"/><use transform="matrix(0.05,0,0,0.05,37.95,0)" xlink:href="#H"/><use transform="matrix(0.05,0,0,0.05,43.900000000000006,0)" xlink:href="#K"/><use transform="matrix(0.05,0,0,0.05,53.900000000000006,0)" xlink:href="#L"/></g><path fill="#e5e5e5" d="M16-82v-28h88v28H16" id="M"/><use transform="matrix(0.05,0,0,0.05,0,0)" xlink:href="#M" id="b"/><path fill="#e5e5e5" d="M117-194c89-4 53 116 60 194h-32v-121c0-31-8-49-39-48C34-167 62-67 57 0H25l-1-190h30c1 10-1 24 2 32 11-22 29-35 61-36" id="N"/><path fill="#e5e5e5" d="M100-194c63 0 86 42 84 106H49c0 40 14 67 53 68 26 1 43-12 49-29l28 8c-11 28-37 45-77 45C44 4 14-33 15-96c1-61 26-98 85-98zm52 81c6-60-76-77-97-28-3 7-6 17-6 28h103" id="O"/><path fill="#e5e5e5" d="M135-143c-3-34-86-38-87 0 15 53 115 12 119 90S17 21 10-45l28-5c4 36 97 45 98 0-10-56-113-15-118-90-4-57 82-63 122-42 12 7 21 19 24 35" id="P"/><path fill="#e5e5e5" d="M33-154v-36h34v36H33zM33 0v-36h34V0H33" id="Q"/><g id="c"><use transform="matrix(0.05,0,0,0.05,0,0)" xlink:href="#L"/><use transform="matrix(0.05,0,0,0.05,14.950000000000001,0)" xlink:href="#K"/><use transform="matrix(0.05,0,0,0.05,24.950000000000003,0)" xlink:href="#N"/><use transform="matrix(0.05,0,0,0.05,34.95,0)" xlink:href="#K"/><use transform="matrix(0.05,0,0,0.05,44.95,0)" xlink:href="#J"/><use transform="matrix(0.05,0,0,0.05,54.95,0)" xlink:href="#O"/><use transform="matrix(0.05,0,0,0.05,64.95,0)" xlink:href="#H"/><use transform="matrix(0.05,0,0,0.05,70.9,0)" xlink:href="#P"/><use transform="matrix(0.05,0,0,0.05,79.9,0)" xlink:href="#Q"/></g><path fill="#e5e5e5" d="M30 0v-248h33v221h125V0H30" id="R"/><path fill="#e5e5e5" d="M24-231v-30h32v30H24zM24 0v-190h32V0H24" id="S"/><path fill="#e5e5e5" d="M59-47c-2 24 18 29 38 22v24C64 9 27 4 27-40v-127H5v-23h24l9-43h21v43h35v23H59v120" id="T"/><path fill="#e5e5e5" d="M18-100v-36l175-74v27L42-118l151 64v27" id="U"/><path fill="#e5e5e5" d="M240 0l2-218c-23 76-54 145-80 218h-23L58-218 59 0H30v-248h44l77 211c21-75 51-140 76-211h43V0h-30" id="V"/><path fill="#e5e5e5" d="M18-27v-27l151-64-151-65v-27l175 74v36" id="W"/><g id="d"><use transform="matrix(0.05,0,0,0.05,0,0)" xlink:href="#R"/><use transform="matrix(0.05,0,0,0.05,10,0)" xlink:href="#S"/><use transform="matrix(0.05,0,0,0.05,13.949999999999998,0)" xlink:href="#P"/><use transform="matrix(0.05,0,0,0.05,22.95,0)" xlink:href="#T"/><use transform="matrix(0.05,0,0,0.05,27.950000000000003,0)" xlink:href="#U"/><use transform="matrix(0.05,0,0,0.05,38.45,0)" xlink:href="#V"/><use transform="matrix(0.05,0,0,0.05,53.400000000000006,0)" xlink:href="#K"/><use transform="matrix(0.05,0,0,0.05,63.400000000000006,0)" xlink:href="#N"/><use transform="matrix(0.05,0,0,0.05,73.4,0)" xlink:href="#K"/><use transform="matrix(0.05,0,0,0.05,83.4,0)" xlink:href="#J"/><use transform="matrix(0.05,0,0,0.05,93.4,0)" xlink:href="#O"/><use transform="matrix(0.05,0,0,0.05,103.4,0)" xlink:href="#H"/><use transform="matrix(0.05,0,0,0.05,109.35000000000001,0)" xlink:href="#W"/></g><path fill="#e5e5e5" d="M118-107v75H92v-75H18v-26h74v-75h26v75h74v26h-74" id="X"/><use transform="matrix(0.05,0,0,0.05,0,0)" xlink:href="#X" id="e"/><path fill="#e5e5e5" d="M87 75C49 33 22-17 22-94c0-76 28-126 65-167h31c-38 41-64 92-64 168S80 34 118 75H87" id="Y"/><path fill="#e5e5e5" d="M33-261c38 41 65 92 65 168S71 34 33 75H2C39 34 66-17 66-93S39-220 2-261h31" id="Z"/><g id="f"><use transform="matrix(0.05,0,0,0.05,0,0)" xlink:href="#G"/><use transform="matrix(0.05,0,0,0.05,12,0)" xlink:href="#H"/><use transform="matrix(0.05,0,0,0.05,17.95,0)" xlink:href="#I"/><use transform="matrix(0.05,0,0,0.05,27.950000000000003,0)" xlink:href="#J"/><use transform="matrix(0.05,0,0,0.05,37.95,0)" xlink:href="#H"/><use transform="matrix(0.05,0,0,0.05,43.900000000000006,0)" xlink:href="#K"/><use transform="matrix(0.05,0,0,0.05,53.900000000000006,0)" xlink:href="#L"/><use transform="matrix(0.05,0,0,0.05,68.85000000000001,0)" xlink:href="#Y"/><use transform="matrix(0.05,0,0,0.05,74.80000000000001,0)" xlink:href="#Z"/></g><g id="g"><use transform="matrix(0.05,0,0,0.05,0,0)" xlink:href="#V"/><use transform="matrix(0.05,0,0,0.05,14.950000000000001,0)" xlink:href="#K"/><use transform="matrix(0.05,0,0,0.05,24.950000000000003,0)" xlink:href="#S"/><use transform="matrix(0.05,0,0,0.05,28.900000000000002,0)" xlink:href="#N"/><use transform="matrix(0.05,0,0,0.05,38.900000000000006,0)" xlink:href="#Y"/><use transform="matrix(0.05,0,0,0.05,44.85000000000001,0)" xlink:href="#Z"/></g><path fill="#e5e5e5" d="M212-179c-10-28-35-45-73-45-59 0-87 40-87 99 0 60 29 101 89 101 43 0 62-24 78-52l27 14C228-24 195 4 139 4 59 4 22-46 18-125c-6-104 99-153 187-111 19 9 31 26 39 46" id="aa"/><path fill="#e5e5e5" d="M24 0v-261h32V0H24" id="ab"/><path fill="#e5e5e5" d="M101-234c-31-9-42 10-38 44h38v23H63V0H32v-167H5v-23h27c-7-52 17-82 69-68v24" id="ac"/><path fill="#e5e5e5" d="M84 4C-5 8 30-112 23-190h32v120c0 31 7 50 39 49 72-2 45-101 50-169h31l1 190h-30c-1-10 1-25-2-33-11 22-28 36-60 37" id="ad"/><g id="h"><use transform="matrix(0.05,0,0,0.05,0,0)" xlink:href="#aa"/><use transform="matrix(0.05,0,0,0.05,12.950000000000001,0)" xlink:href="#I"/><use transform="matrix(0.05,0,0,0.05,22.950000000000003,0)" xlink:href="#ab"/><use transform="matrix(0.05,0,0,0.05,26.900000000000002,0)" xlink:href="#I"/><use transform="matrix(0.05,0,0,0.05,36.900000000000006,0)" xlink:href="#H"/><use transform="matrix(0.05,0,0,0.05,42.85000000000001,0)" xlink:href="#ac"/><use transform="matrix(0.05,0,0,0.05,47.85000000000001,0)" xlink:href="#ad"/><use transform="matrix(0.05,0,0,0.05,57.85,0)" xlink:href="#ab"/><use transform="matrix(0.05,0,0,0.05,61.80000000000001,0)" xlink:href="#V"/><use transform="matrix(0.05,0,0,0.05,76.75000000000001,0)" xlink:href="#K"/><use transform="matrix(0.05,0,0,0.05,86.75000000000001,0)" xlink:href="#N"/><use transform="matrix(0.05,0,0,0.05,96.75000000000001,0)" xlink:href="#K"/><use transform="matrix(0.05,0,0,0.05,106.75,0)" xlink:href="#J"/><use transform="matrix(0.05,0,0,0.05,116.75,0)" xlink:href="#O"/><use transform="matrix(0.05,0,0,0.05,126.75,0)" xlink:href="#H"/></g><path fill="#e5e5e5" d="M143 0L79-87 56-68V0H24v-261h32v163l83-92h37l-77 82L181 0h-38" id="ae"/><path fill="#e5e5e5" d="M115-194c55 1 70 41 70 98S169 2 115 4C84 4 66-9 55-30l1 105H24l-1-265h31l2 30c10-21 28-34 59-34zm-8 174c40 0 45-34 45-75s-6-73-45-74c-42 0-51 32-51 76 0 43 10 73 51 73" id="af"/><g id="i"><use transform="matrix(0.05,0,0,0.05,0,0)" xlink:href="#ae"/><use transform="matrix(0.05,0,0,0.05,9,0)" xlink:href="#O"/><use transform="matrix(0.05,0,0,0.05,19,0)" xlink:href="#O"/><use transform="matrix(0.05,0,0,0.05,29,0)" xlink:href="#af"/><use transform="matrix(0.05,0,0,0.05,39,0)" xlink:href="#O"/><use transform="matrix(0.05,0,0,0.05,49,0)" xlink:href="#H"/><use transform="matrix(0.05,0,0,0.05,54.95,0)" xlink:href="#P"/><use transform="matrix(0.05,0,0,0.05,63.95,0)" xlink:href="#Q"/></g><path fill="#e5e5e5" d="M106-169C34-169 62-67 57 0H25v-261h32l-1 103c12-21 28-36 61-36 89 0 53 116 60 194h-32v-121c2-32-8-49-39-48" id="ag"/><path fill="#e5e5e5" d="M194 0L95-120 63-95V0H30v-248h33v124l119-124h40L117-140 236 0h-42" id="ah"/><g id="j"><use transform="matrix(0.05,0,0,0.05,0,0)" xlink:href="#R"/><use transform="matrix(0.05,0,0,0.05,10,0)" xlink:href="#S"/><use transform="matrix(0.05,0,0,0.05,13.949999999999998,0)" xlink:href="#P"/><use transform="matrix(0.05,0,0,0.05,22.95,0)" xlink:href="#T"/><use transform="matrix(0.05,0,0,0.05,27.950000000000003,0)" xlink:href="#U"/><use transform="matrix(0.05,0,0,0.05,38.45,0)" xlink:href="#aa"/><use transform="matrix(0.05,0,0,0.05,51.400000000000006,0)" xlink:href="#I"/><use transform="matrix(0.05,0,0,0.05,61.400000000000006,0)" xlink:href="#ab"/><use transform="matrix(0.05,0,0,0.05,65.35000000000001,0)" xlink:href="#I"/><use transform="matrix(0.05,0,0,0.05,75.35000000000001,0)" xlink:href="#H"/><use transform="matrix(0.05,0,0,0.05,81.30000000000001,0)" xlink:href="#ac"/><use transform="matrix(0.05,0,0,0.05,86.30000000000001,0)" xlink:href="#ad"/><use transform="matrix(0.05,0,0,0.05,96.30000000000001,0)" xlink:href="#ab"/><use transform="matrix(0.05,0,0,0.05,100.25000000000001,0)" xlink:href="#R"/><use transform="matrix(0.05,0,0,0.05,110.25,0)" xlink:href="#S"/><use transform="matrix(0.05,0,0,0.05,114.2,0)" xlink:href="#J"/><use transform="matrix(0.05,0,0,0.05,124.2,0)" xlink:href="#ag"/><use transform="matrix(0.05,0,0,0.05,134.20000000000002,0)" xlink:href="#T"/><use transform="matrix(0.05,0,0,0.05,139.20000000000002,0)" xlink:href="#ah"/><use transform="matrix(0.05,0,0,0.05,151.20000000000002,0)" xlink:href="#O"/><use transform="matrix(0.05,0,0,0.05,161.20000000000002,0)" xlink:href="#O"/><use transform="matrix(0.05,0,0,0.05,171.20000000000002,0)" xlink:href="#af"/><use transform="matrix(0.05,0,0,0.05,181.20000000000002,0)" xlink:href="#O"/><use transform="matrix(0.05,0,0,0.05,191.20000000000002,0)" xlink:href="#H"/><use transform="matrix(0.05,0,0,0.05,197.15,0)" xlink:href="#W"/></g><path fill="#e5e5e5" d="M33 0v-248h34V0H33" id="ai"/><path fill="#e5e5e5" d="M179-190L93 31C79 59 56 82 12 73V49c39 6 53-20 64-50L1-190h34L92-34l54-156h33" id="aj"/><g id="k"><use transform="matrix(0.05,0,0,0.05,0,0)" xlink:href="#aa"/><use transform="matrix(0.05,0,0,0.05,12.950000000000001,0)" xlink:href="#I"/><use transform="matrix(0.05,0,0,0.05,22.950000000000003,0)" xlink:href="#ab"/><use transform="matrix(0.05,0,0,0.05,26.900000000000002,0)" xlink:href="#I"/><use transform="matrix(0.05,0,0,0.05,36.900000000000006,0)" xlink:href="#H"/><use transform="matrix(0.05,0,0,0.05,42.85000000000001,0)" xlink:href="#ac"/><use transform="matrix(0.05,0,0,0.05,47.85000000000001,0)" xlink:href="#ad"/><use transform="matrix(0.05,0,0,0.05,57.85,0)" xlink:href="#ab"/><use transform="matrix(0.05,0,0,0.05,61.80000000000001,0)" xlink:href="#V"/><use transform="matrix(0.05,0,0,0.05,76.75000000000001,0)" xlink:href="#K"/><use transform="matrix(0.05,0,0,0.05,86.75000000000001,0)" xlink:href="#N"/><use transform="matrix(0.05,0,0,0.05,96.75000000000001,0)" xlink:href="#K"/><use transform="matrix(0.05,0,0,0.05,106.75,0)" xlink:href="#J"/><use transform="matrix(0.05,0,0,0.05,116.75,0)" xlink:href="#O"/><use transform="matrix(0.05,0,0,0.05,126.75,0)" xlink:href="#H"/><use transform="matrix(0.05,0,0,0.05,132.70000000000002,0)" xlink:href="#Y"/><use transform="matrix(0.05,0,0,0.05,138.65,0)" xlink:href="#R"/><use transform="matrix(0.05,0,0,0.05,148.65,0)" xlink:href="#S"/><use transform="matrix(0.05,0,0,0.05,152.6,0)" xlink:href="#P"/><use transform="matrix(0.05,0,0,0.05,161.6,0)" xlink:href="#T"/><use transform="matrix(0.05,0,0,0.05,166.6,0)" xlink:href="#U"/><use transform="matrix(0.05,0,0,0.05,177.1,0)" xlink:href="#ai"/><use transform="matrix(0.05,0,0,0.05,182.1,0)" xlink:href="#V"/><use transform="matrix(0.05,0,0,0.05,197.04999999999998,0)" xlink:href="#aj"/><use transform="matrix(0.05,0,0,0.05,206.04999999999995,0)" xlink:href="#ai"/><use transform="matrix(0.05,0,0,0.05,211.04999999999995,0)" xlink:href="#N"/><use transform="matrix(0.05,0,0,0.05,221.04999999999995,0)" xlink:href="#T"/><use transform="matrix(0.05,0,0,0.05,226.04999999999995,0)" xlink:href="#O"/><use transform="matrix(0.05,0,0,0.05,236.04999999999995,0)" xlink:href="#H"/><use transform="matrix(0.05,0,0,0.05,241.99999999999997,0)" xlink:href="#S"/><use transform="matrix(0.05,0,0,0.05,245.94999999999996,0)" xlink:href="#I"/><use transform="matrix(0.05,0,0,0.05,255.94999999999996,0)" xlink:href="#H"/><use transform="matrix(0.05,0,0,0.05,261.9,0)" xlink:href="#R"/><use transform="matrix(0.05,0,0,0.05,271.9,0)" xlink:href="#S"/><use transform="matrix(0.05,0,0,0.05,275.84999999999997,0)" xlink:href="#J"/><use transform="matrix(0.05,0,0,0.05,285.84999999999997,0)" xlink:href="#ag"/><use transform="matrix(0.05,0,0,0.05,295.84999999999997,0)" xlink:href="#T"/><use transform="matrix(0.05,0,0,0.05,300.84999999999997,0)" xlink:href="#W"/><use transform="matrix(0.05,0,0,0.05,311.34999999999997,0)" xlink:href="#Z"/></g><path fill="#e5e5e5" d="M96-169c-40 0-48 33-48 73s9 75 48 75c24 0 41-14 43-38l32 2c-6 37-31 61-74 61-59 0-76-41-82-99-10-93 101-131 147-64 4 7 5 14 7 22l-32 3c-4-21-16-35-41-35" id="ak"/><g id="l"><use transform="matrix(0.05,0,0,0.05,0,0)" xlink:href="#T"/><use transform="matrix(0.05,0,0,0.05,5,0)" xlink:href="#S"/><use transform="matrix(0.05,0,0,0.05,8.95,0)" xlink:href="#ak"/><use transform="matrix(0.05,0,0,0.05,17.95,0)" xlink:href="#ae"/><use transform="matrix(0.05,0,0,0.05,26.950000000000003,0)" xlink:href="#Y"/><use transform="matrix(0.05,0,0,0.05,32.9,0)" xlink:href="#Z"/></g><path fill="#fff" d="M101-251c68 0 85 55 85 127S166 4 100 4C33 4 14-52 14-124c0-73 17-127 87-127zm-1 229c47 0 54-49 54-102s-4-102-53-102c-51 0-55 48-55 102 0 53 5 102 54 102" id="al"/><path fill="#fff" d="M33 0v-38h34V0H33" id="am"/><path fill="#fff" d="M80-196l47-18 7 23-49 13 32 44-20 13-27-46-27 45-21-12 33-44-49-13 8-23 47 19-2-53h23" id="an"/><g id="m"><use transform="matrix(0.05,0,0,0.05,0,0)" xlink:href="#al"/><use transform="matrix(0.05,0,0,0.05,10,0)" xlink:href="#am"/><use transform="matrix(0.05,0,0,0.05,15,0)" xlink:href="#am"/><use transform="matrix(0.05,0,0,0.05,20,0)" xlink:href="#an"/></g><g id="n"><use transform="matrix(0.05,0,0,0.05,0,0)" xlink:href="#aa"/><use transform="matrix(0.05,0,0,0.05,12.950000000000001,0)" xlink:href="#I"/><use transform="matrix(0.05,0,0,0.05,22.950000000000003,0)" xlink:href="#ab"/><use transform="matrix(0.05,0,0,0.05,26.900000000000002,0)" xlink:href="#I"/><use transform="matrix(0.05,0,0,0.05,36.900000000000006,0)" xlink:href="#H"/><use transform="matrix(0.05,0,0,0.05,42.85000000000001,0)" xlink:href="#ac"/><use transform="matrix(0.05,0,0,0.05,47.85000000000001,0)" xlink:href="#ad"/><use transform="matrix(0.05,0,0,0.05,57.85,0)" xlink:href="#ab"/><use transform="matrix(0.05,0,0,0.05,61.80000000000001,0)" xlink:href="#R"/><use transform="matrix(0.05,0,0,0.05,71.80000000000001,0)" xlink:href="#S"/><use transform="matrix(0.05,0,0,0.05,75.75000000000001,0)" xlink:href="#J"/><use transform="matrix(0.05,0,0,0.05,85.75000000000001,0)" xlink:href="#ag"/><use transform="matrix(0.05,0,0,0.05,95.75000000000001,0)" xlink:href="#T"/><use transform="matrix(0.05,0,0,0.05,100.75000000000001,0)" xlink:href="#ah"/><use transform="matrix(0.05,0,0,0.05,112.75,0)" xlink:href="#O"/><use transform="matrix(0.05,0,0,0.05,122.75,0)" xlink:href="#O"/><use transform="matrix(0.05,0,0,0.05,132.75,0)" xlink:href="#af"/><use transform="matrix(0.05,0,0,0.05,142.75,0)" xlink:href="#O"/><use transform="matrix(0.05,0,0,0.05,152.75,0)" xlink:href="#H"/></g><g id="o"><use transform="matrix(0.05,0,0,0.05,0,0)" xlink:href="#ab"/><use transform="matrix(0.05,0,0,0.05,3.95,0)" xlink:href="#S"/><use transform="matrix(0.05,0,0,0.05,7.9,0)" xlink:href="#J"/><use transform="matrix(0.05,0,0,0.05,17.9,0)" xlink:href="#ag"/><use transform="matrix(0.05,0,0,0.05,27.899999999999995,0)" xlink:href="#T"/><use transform="matrix(0.05,0,0,0.05,32.9,0)" xlink:href="#Q"/></g><g id="p"><use transform="matrix(0.05,0,0,0.05,0,0)" xlink:href="#ai"/><use transform="matrix(0.05,0,0,0.05,5,0)" xlink:href="#V"/><use transform="matrix(0.05,0,0,0.05,19.950000000000003,0)" xlink:href="#aj"/><use transform="matrix(0.05,0,0,0.05,28.950000000000003,0)" xlink:href="#ai"/><use transform="matrix(0.05,0,0,0.05,33.95,0)" xlink:href="#N"/><use transform="matrix(0.05,0,0,0.05,43.95,0)" xlink:href="#T"/><use transform="matrix(0.05,0,0,0.05,48.95,0)" xlink:href="#O"/><use transform="matrix(0.05,0,0,0.05,58.95,0)" xlink:href="#H"/><use transform="matrix(0.05,0,0,0.05,64.9,0)" xlink:href="#S"/><use transform="matrix(0.05,0,0,0.05,68.85000000000001,0)" xlink:href="#I"/><use transform="matrix(0.05,0,0,0.05,78.85000000000001,0)" xlink:href="#H"/><use transform="matrix(0.05,0,0,0.05,84.80000000000001,0)" xlink:href="#R"/><use transform="matrix(0.05,0,0,0.05,94.80000000000001,0)" xlink:href="#S"/><use transform="matrix(0.05,0,0,0.05,98.75000000000001,0)" xlink:href="#J"/><use transform="matrix(0.05,0,0,0.05,108.75,0)" xlink:href="#ag"/><use transform="matrix(0.05,0,0,0.05,118.75,0)" xlink:href="#T"/></g><g id="q"><use transform="matrix(0.05,0,0,0.05,0,0)" xlink:href="#S"/><use transform="matrix(0.05,0,0,0.05,3.95,0)" xlink:href="#N"/><use transform="matrix(0.05,0,0,0.05,13.949999999999998,0)" xlink:href="#ak"/><use transform="matrix(0.05,0,0,0.05,22.95,0)" xlink:href="#H"/><use transform="matrix(0.05,0,0,0.05,28.899999999999995,0)" xlink:href="#O"/><use transform="matrix(0.05,0,0,0.05,38.9,0)" xlink:href="#L"/><use transform="matrix(0.05,0,0,0.05,53.85,0)" xlink:href="#O"/><use transform="matrix(0.05,0,0,0.05,63.85,0)" xlink:href="#N"/><use transform="matrix(0.05,0,0,0.05,73.85,0)" xlink:href="#T"/><use transform="matrix(0.05,0,0,0.05,78.85,0)" xlink:href="#Q"/></g><g id="r"><use transform="matrix(0.05,0,0,0.05,0,0)" xlink:href="#S"/><use transform="matrix(0.05,0,0,0.05,3.95,0)" xlink:href="#N"/><use transform="matrix(0.05,0,0,0.05,13.949999999999998,0)" xlink:href="#T"/></g><g id="s"><use transform="matrix(0.05,0,0,0.05,0,0)" xlink:href="#aa"/><use transform="matrix(0.05,0,0,0.05,12.950000000000001,0)" xlink:href="#I"/><use transform="matrix(0.05,0,0,0.05,22.950000000000003,0)" xlink:href="#ab"/><use transform="matrix(0.05,0,0,0.05,26.900000000000002,0)" xlink:href="#I"/><use transform="matrix(0.05,0,0,0.05,36.900000000000006,0)" xlink:href="#H"/><use transform="matrix(0.05,0,0,0.05,42.85000000000001,0)" xlink:href="#ac"/><use transform="matrix(0.05,0,0,0.05,47.85000000000001,0)" xlink:href="#ad"/><use transform="matrix(0.05,0,0,0.05,57.85,0)" xlink:href="#ab"/><use transform="matrix(0.05,0,0,0.05,61.80000000000001,0)" xlink:href="#R"/><use transform="matrix(0.05,0,0,0.05,71.80000000000001,0)" xlink:href="#S"/><use transform="matrix(0.05,0,0,0.05,75.75000000000001,0)" xlink:href="#J"/><use transform="matrix(0.05,0,0,0.05,85.75000000000001,0)" xlink:href="#ag"/><use transform="matrix(0.05,0,0,0.05,95.75000000000001,0)" xlink:href="#T"/><use transform="matrix(0.05,0,0,0.05,100.75000000000001,0)" xlink:href="#ah"/><use transform="matrix(0.05,0,0,0.05,112.75,0)" xlink:href="#O"/><use transform="matrix(0.05,0,0,0.05,122.75,0)" xlink:href="#O"/><use transform="matrix(0.05,0,0,0.05,132.75,0)" xlink:href="#af"/><use transform="matrix(0.05,0,0,0.05,142.75,0)" xlink:href="#O"/><use transform="matrix(0.05,0,0,0.05,152.75,0)" xlink:href="#H"/><use transform="matrix(0.05,0,0,0.05,158.7,0)" xlink:href="#Y"/><use transform="matrix(0.05,0,0,0.05,164.64999999999998,0)" xlink:href="#ai"/><use transform="matrix(0.05,0,0,0.05,169.64999999999998,0)" xlink:href="#V"/><use transform="matrix(0.05,0,0,0.05,184.59999999999997,0)" xlink:href="#aj"/><use transform="matrix(0.05,0,0,0.05,193.59999999999997,0)" xlink:href="#ai"/><use transform="matrix(0.05,0,0,0.05,198.59999999999997,0)" xlink:href="#N"/><use transform="matrix(0.05,0,0,0.05,208.59999999999997,0)" xlink:href="#T"/><use transform="matrix(0.05,0,0,0.05,213.59999999999997,0)" xlink:href="#O"/><use transform="matrix(0.05,0,0,0.05,223.59999999999997,0)" xlink:href="#H"/><use transform="matrix(0.05,0,0,0.05,229.54999999999995,0)" xlink:href="#S"/><use transform="matrix(0.05,0,0,0.05,233.49999999999991,0)" xlink:href="#I"/><use transform="matrix(0.05,0,0,0.05,243.49999999999991,0)" xlink:href="#H"/><use transform="matrix(0.05,0,0,0.05,249.44999999999993,0)" xlink:href="#R"/><use transform="matrix(0.05,0,0,0.05,259.44999999999993,0)" xlink:href="#S"/><use transform="matrix(0.05,0,0,0.05,263.3999999999999,0)" xlink:href="#J"/><use transform="matrix(0.05,0,0,0.05,273.3999999999999,0)" xlink:href="#ag"/><use transform="matrix(0.05,0,0,0.05,283.3999999999999,0)" xlink:href="#T"/><use transform="matrix(0.05,0,0,0.05,288.3999999999999,0)" xlink:href="#Z"/></g><path fill="#e5e5e5" d="M15-91v-56l181-69v40L49-119l147 57v40" id="ao"/><path fill="#e5e5e5" d="M25-224v-37h50v37H25zM25 0v-190h50V0H25" id="ap"/><path fill="#e5e5e5" d="M135-194c87-1 58 113 63 194h-50c-7-57 23-157-34-157-59 0-34 97-39 157H25l-1-190h47c2 12-1 28 3 38 12-26 28-41 61-42" id="aq"/><path fill="#e5e5e5" d="M115-3C79 11 28 4 28-45v-112H4v-33h27l15-45h31v45h36v33H77v99c-1 23 16 31 38 25v30" id="ar"/><path fill="#e5e5e5" d="M185-48c-13 30-37 53-82 52C43 2 14-33 14-96s30-98 90-98c62 0 83 45 84 108H66c0 31 8 55 39 56 18 0 30-7 34-22zm-45-69c5-46-57-63-70-21-2 6-4 13-4 21h74" id="as"/><path fill="#e5e5e5" d="M135-150c-39-12-60 13-60 57V0H25l-1-190h47c2 13-1 29 3 40 6-28 27-53 61-41v41" id="at"/><path fill="#e5e5e5" d="M121-226c-27-7-43 5-38 36h38v33H83V0H34v-157H6v-33h28c-9-59 32-81 87-68v32" id="au"/><path fill="#e5e5e5" d="M133-34C117-15 103 5 69 4 32 3 11-16 11-54c-1-60 55-63 116-61 1-26-3-47-28-47-18 1-26 9-28 27l-52-2c7-38 36-58 82-57s74 22 75 68l1 82c-1 14 12 18 25 15v27c-30 8-71 5-69-32zm-48 3c29 0 43-24 42-57-32 0-66-3-65 30 0 17 8 27 23 27" id="av"/><path fill="#e5e5e5" d="M190-63c-7 42-38 67-86 67-59 0-84-38-90-98-12-110 154-137 174-36l-49 2c-2-19-15-32-35-32-30 0-35 28-38 64-6 74 65 87 74 30" id="aw"/><path fill="#e5e5e5" d="M15-22v-40l146-57-146-57v-40l181 69v56" id="ax"/><g id="t"><use transform="matrix(0.05,0,0,0.05,0,0)" xlink:href="#ao"/><use transform="matrix(0.05,0,0,0.05,10.5,0)" xlink:href="#ao"/><use transform="matrix(0.05,0,0,0.05,21,0)" xlink:href="#ap"/><use transform="matrix(0.05,0,0,0.05,26,0)" xlink:href="#aq"/><use transform="matrix(0.05,0,0,0.05,36.95,0)" xlink:href="#ar"/><use transform="matrix(0.05,0,0,0.05,42.900000000000006,0)" xlink:href="#as"/><use transform="matrix(0.05,0,0,0.05,52.900000000000006,0)" xlink:href="#at"/><use transform="matrix(0.05,0,0,0.05,59.900000000000006,0)" xlink:href="#au"/><use transform="matrix(0.05,0,0,0.05,65.85000000000001,0)" xlink:href="#av"/><use transform="matrix(0.05,0,0,0.05,75.85000000000001,0)" xlink:href="#aw"/><use transform="matrix(0.05,0,0,0.05,85.85000000000001,0)" xlink:href="#as"/><use transform="matrix(0.05,0,0,0.05,95.85000000000001,0)" xlink:href="#ax"/><use transform="matrix(0.05,0,0,0.05,106.35000000000001,0)" xlink:href="#ax"/></g><path fill="#e5e5e5" d="M230 0l2-204L168 0h-37L68-204 70 0H24v-248h70l56 185 57-185h69V0h-46" id="ay"/><path fill="#e5e5e5" d="M195-6C206 82 75 100 31 46c-4-6-6-13-8-21l49-6c3 16 16 24 34 25 40 0 42-37 40-79-11 22-30 35-61 35-53 0-70-43-70-97 0-56 18-96 73-97 30 0 46 14 59 34l2-30h47zm-90-29c32 0 41-27 41-63 0-35-9-62-40-62-32 0-39 29-40 63 0 36 9 62 39 62" id="az"/><g id="u"><use transform="matrix(0.05,0,0,0.05,0,0)" xlink:href="#ay"/><use transform="matrix(0.05,0,0,0.05,14.950000000000001,0)" xlink:href="#av"/><use transform="matrix(0.05,0,0,0.05,24.950000000000003,0)" xlink:href="#aq"/><use transform="matrix(0.05,0,0,0.05,35.900000000000006,0)" xlink:href="#av"/><use transform="matrix(0.05,0,0,0.05,45.900000000000006,0)" xlink:href="#az"/><use transform="matrix(0.05,0,0,0.05,56.85,0)" xlink:href="#as"/><use transform="matrix(0.05,0,0,0.05,66.85000000000001,0)" xlink:href="#at"/></g><g id="v"><use transform="matrix(0.05,0,0,0.05,0,0)" xlink:href="#T"/><use transform="matrix(0.05,0,0,0.05,5,0)" xlink:href="#S"/><use transform="matrix(0.05,0,0,0.05,8.95,0)" xlink:href="#ak"/><use transform="matrix(0.05,0,0,0.05,17.95,0)" xlink:href="#ae"/><use transform="matrix(0.05,0,0,0.05,26.950000000000003,0)" xlink:href="#Y"/><use transform="matrix(0.05,0,0,0.05,32.9,0)" xlink:href="#Z"/></g><path fill="#e5e5e5" d="M127-220V0H93v-220H8v-28h204v28h-85" id="aA"/><g id="w"><use transform="matrix(0.05,0,0,0.05,0,0)" xlink:href="#aA"/><use transform="matrix(0.05,0,0,0.05,8.950000000000001,0)" xlink:href="#I"/><use transform="matrix(0.05,0,0,0.05,18.950000000000003,0)" xlink:href="#J"/><use transform="matrix(0.05,0,0,0.05,28.950000000000003,0)" xlink:href="#J"/><use transform="matrix(0.05,0,0,0.05,38.95,0)" xlink:href="#ab"/><use transform="matrix(0.05,0,0,0.05,42.900000000000006,0)" xlink:href="#S"/><use transform="matrix(0.05,0,0,0.05,46.85000000000001,0)" xlink:href="#N"/><use transform="matrix(0.05,0,0,0.05,56.85,0)" xlink:href="#J"/><use transform="matrix(0.05,0,0,0.05,66.85000000000001,0)" xlink:href="#V"/><use transform="matrix(0.05,0,0,0.05,81.80000000000001,0)" xlink:href="#K"/><use transform="matrix(0.05,0,0,0.05,91.80000000000001,0)" xlink:href="#N"/><use transform="matrix(0.05,0,0,0.05,101.80000000000001,0)" xlink:href="#K"/><use transform="matrix(0.05,0,0,0.05,111.80000000000001,0)" xlink:href="#J"/><use transform="matrix(0.05,0,0,0.05,121.80000000000001,0)" xlink:href="#O"/><use transform="matrix(0.05,0,0,0.05,131.8,0)" xlink:href="#H"/></g><g id="x"><use transform="matrix(0.05,0,0,0.05,0,0)" xlink:href="#ab"/><use transform="matrix(0.05,0,0,0.05,3.95,0)" xlink:href="#S"/><use transform="matrix(0.05,0,0,0.05,7.9,0)" xlink:href="#J"/><use transform="matrix(0.05,0,0,0.05,17.9,0)" xlink:href="#ag"/><use transform="matrix(0.05,0,0,0.05,27.899999999999995,0)" xlink:href="#T"/><use transform="matrix(0.05,0,0,0.05,32.9,0)" xlink:href="#P"/><use transform="matrix(0.05,0,0,0.05,41.9,0)" xlink:href="#Q"/></g><g id="y"><use transform="matrix(0.05,0,0,0.05,0,0)" xlink:href="#R"/><use transform="matrix(0.05,0,0,0.05,10,0)" xlink:href="#S"/><use transform="matrix(0.05,0,0,0.05,13.949999999999998,0)" xlink:href="#P"/><use transform="matrix(0.05,0,0,0.05,22.95,0)" xlink:href="#T"/><use transform="matrix(0.05,0,0,0.05,27.950000000000003,0)" xlink:href="#U"/><use transform="matrix(0.05,0,0,0.05,38.45,0)" xlink:href="#ai"/><use transform="matrix(0.05,0,0,0.05,43.45,0)" xlink:href="#V"/><use transform="matrix(0.05,0,0,0.05,58.400000000000006,0)" xlink:href="#aj"/><use transform="matrix(0.05,0,0,0.05,67.4,0)" xlink:href="#ai"/><use transform="matrix(0.05,0,0,0.05,72.4,0)" xlink:href="#N"/><use transform="matrix(0.05,0,0,0.05,82.4,0)" xlink:href="#T"/><use transform="matrix(0.05,0,0,0.05,87.4,0)" xlink:href="#O"/><use transform="matrix(0.05,0,0,0.05,97.4,0)" xlink:href="#H"/><use transform="matrix(0.05,0,0,0.05,103.35000000000001,0)" xlink:href="#S"/><use transform="matrix(0.05,0,0,0.05,107.30000000000001,0)" xlink:href="#I"/><use transform="matrix(0.05,0,0,0.05,117.30000000000001,0)" xlink:href="#H"/><use transform="matrix(0.05,0,0,0.05,123.25,0)" xlink:href="#R"/><use transform="matrix(0.05,0,0,0.05,133.25,0)" xlink:href="#S"/><use transform="matrix(0.05,0,0,0.05,137.2,0)" xlink:href="#J"/><use transform="matrix(0.05,0,0,0.05,147.2,0)" xlink:href="#ag"/><use transform="matrix(0.05,0,0,0.05,157.2,0)" xlink:href="#T"/><use transform="matrix(0.05,0,0,0.05,162.2,0)" xlink:href="#W"/></g><path fill="#e5e5e5" d="M85-194c31 0 48 13 60 33l-1-100h32l1 261h-30c-2-10 0-23-3-31C134-8 116 4 85 4 32 4 16-35 15-94c0-66 23-100 70-100zm9 24c-40 0-46 34-46 75 0 40 6 74 45 74 42 0 51-32 51-76 0-42-9-74-50-73" id="aB"/><path fill="#e5e5e5" d="M141 0L90-78 38 0H4l68-98-65-92h35l48 74 47-74h35l-64 92 68 98h-35" id="aC"/><g id="z"><use transform="matrix(0.05,0,0,0.05,0,0)" xlink:href="#S"/><use transform="matrix(0.05,0,0,0.05,3.95,0)" xlink:href="#N"/><use transform="matrix(0.05,0,0,0.05,13.949999999999998,0)" xlink:href="#aB"/><use transform="matrix(0.05,0,0,0.05,23.95,0)" xlink:href="#O"/><use transform="matrix(0.05,0,0,0.05,33.95,0)" xlink:href="#aC"/><use transform="matrix(0.05,0,0,0.05,42.95,0)" xlink:href="#Q"/></g><g id="A"><use transform="matrix(0.05,0,0,0.05,0,0)" xlink:href="#S"/><use transform="matrix(0.05,0,0,0.05,3.95,0)" xlink:href="#N"/><use transform="matrix(0.05,0,0,0.05,13.949999999999998,0)" xlink:href="#T"/></g><path fill="#e5e5e5" d="M18-150v-26h174v26H18zm0 90v-26h174v26H18" id="aD"/><use transform="matrix(0.05,0,0,0.05,0,0)" xlink:href="#aD" id="B"/><path fill="#e5e5e5" d="M101-251c68 0 85 55 85 127S166 4 100 4C33 4 14-52 14-124c0-73 17-127 87-127zm-1 229c47 0 54-49 54-102s-4-102-53-102c-51 0-55 48-55 102 0 53 5 102 54 102" id="aE"/><use transform="matrix(0.05,0,0,0.05,0,0)" xlink:href="#aE" id="C"/><g id="D"><use transform="matrix(0.05,0,0,0.05,0,0)" xlink:href="#ak"/><use transform="matrix(0.05,0,0,0.05,9,0)" xlink:href="#I"/><use transform="matrix(0.05,0,0,0.05,19,0)" xlink:href="#ad"/><use transform="matrix(0.05,0,0,0.05,29,0)" xlink:href="#N"/><use transform="matrix(0.05,0,0,0.05,39,0)" xlink:href="#T"/><use transform="matrix(0.05,0,0,0.05,44,0)" xlink:href="#O"/><use transform="matrix(0.05,0,0,0.05,54,0)" xlink:href="#H"/><use transform="matrix(0.05,0,0,0.05,59.95,0)" xlink:href="#Q"/></g><use transform="matrix(0.05,0,0,0.05,0,0)" xlink:href="#aE" id="E"/><g id="F"><use transform="matrix(0.05,0,0,0.05,0,0)" xlink:href="#aA"/><use transform="matrix(0.05,0,0,0.05,8.950000000000001,0)" xlink:href="#I"/><use transform="matrix(0.05,0,0,0.05,18.950000000000003,0)" xlink:href="#J"/><use transform="matrix(0.05,0,0,0.05,28.950000000000003,0)" xlink:href="#J"/><use transform="matrix(0.05,0,0,0.05,38.95,0)" xlink:href="#ab"/><use transform="matrix(0.05,0,0,0.05,42.900000000000006,0)" xlink:href="#S"/><use transform="matrix(0.05,0,0,0.05,46.85000000000001,0)" xlink:href="#N"/><use transform="matrix(0.05,0,0,0.05,56.85,0)" xlink:href="#J"/><use transform="matrix(0.05,0,0,0.05,66.85000000000001,0)" xlink:href="#V"/><use transform="matrix(0.05,0,0,0.05,81.80000000000001,0)" xlink:href="#K"/><use transform="matrix(0.05,0,0,0.05,91.80000000000001,0)" xlink:href="#N"/><use transform="matrix(0.05,0,0,0.05,101.80000000000001,0)" xlink:href="#K"/><use transform="matrix(0.05,0,0,0.05,111.80000000000001,0)" xlink:href="#J"/><use transform="matrix(0.05,0,0,0.05,121.80000000000001,0)" xlink:href="#O"/><use transform="matrix(0.05,0,0,0.05,131.8,0)" xlink:href="#H"/><use transform="matrix(0.05,0,0,0.05,137.75,0)" xlink:href="#Y"/><use transform="matrix(0.05,0,0,0.05,143.7,0)" xlink:href="#R"/><use transform="matrix(0.05,0,0,0.05,153.7,0)" xlink:href="#S"/><use transform="matrix(0.05,0,0,0.05,157.64999999999998,0)" xlink:href="#P"/><use transform="matrix(0.05,0,0,0.05,166.64999999999998,0)" xlink:href="#T"/><use transform="matrix(0.05,0,0,0.05,171.64999999999998,0)" xlink:href="#U"/><use transform="matrix(0.05,0,0,0.05,182.14999999999998,0)" xlink:href="#ai"/><use transform="matrix(0.05,0,0,0.05,187.14999999999998,0)" xlink:href="#V"/><use transform="matrix(0.05,0,0,0.05,202.09999999999997,0)" xlink:href="#aj"/><use transform="matrix(0.05,0,0,0.05,211.09999999999997,0)" xlink:href="#ai"/><use transform="matrix(0.05,0,0,0.05,216.09999999999997,0)" xlink:href="#N"/><use transform="matrix(0.05,0,0,0.05,226.09999999999997,0)" xlink:href="#T"/><use transform="matrix(0.05,0,0,0.05,231.09999999999997,0)" xlink:href="#O"/><use transform="matrix(0.05,0,0,0.05,241.09999999999997,0)" xlink:href="#H"/><use transform="matrix(0.05,0,0,0.05,247.04999999999995,0)" xlink:href="#S"/><use transform="matrix(0.05,0,0,0.05,250.99999999999991,0)" xlink:href="#I"/><use transform="matrix(0.05,0,0,0.05,260.99999999999994,0)" xlink:href="#H"/><use transform="matrix(0.05,0,0,0.05,266.94999999999993,0)" xlink:href="#R"/><use transform="matrix(0.05,0,0,0.05,276.94999999999993,0)" xlink:href="#S"/><use transform="matrix(0.05,0,0,0.05,280.8999999999999,0)" xlink:href="#J"/><use transform="matrix(0.05,0,0,0.05,290.8999999999999,0)" xlink:href="#ag"/><use transform="matrix(0.05,0,0,0.05,300.8999999999999,0)" xlink:href="#T"/><use transform="matrix(0.05,0,0,0.05,305.8999999999999,0)" xlink:href="#W"/><use transform="matrix(0.05,0,0,0.05,316.3999999999999,0)" xlink:href="#Z"/></g></defs></g></svg>