<svg xmlns="http://www.w3.org/2000/svg" xmlns:xlink="http://www.w3.org/1999/xlink" xmlns:lucid="lucid" width="900" height="555"><g transform="translate(-40 -40)" lucid:page-tab-id="0_0"><path d="M80 300h160v100H80z" stroke="#83bbe5" fill="#19355a"/><use xlink:href="#a" transform="matrix(1,0,0,1,88,308) translate(48.599999999999994 45.6)"/><path d="M380 70h240v140H380z" stroke="#83bbe5" fill="#19355a"/><path d="M380 129.2h240" stroke="#83bbe5" fill="none"/><use xlink:href="#b" transform="matrix(1,0,0,1,388,78) translate(53.574999999999996 14.799999999999999)"/><use xlink:href="#c" transform="matrix(1,0,0,1,388,78) translate(82.05 36.4)"/><use xlink:href="#d" transform="matrix(1,0,0,1,392,137.2) translate(0 25.799999999999997)"/><use xlink:href="#e" transform="matrix(1,0,0,1,392,137.2) translate(76.75000000000001 25.799999999999997)"/><use xlink:href="#f" transform="matrix(1,0,0,1,392,137.2) translate(0 47.4)"/><path d="M360 290h280v285H360z" stroke="#83bbe5" fill="#19355a"/><path d="M360 327.6h280M360 451.5h280" stroke="#83bbe5" fill="none"/><use xlink:href="#g" transform="matrix(1,0,0,1,368,298) translate(115.525 14.6)"/><use xlink:href="#h" transform="matrix(1,0,0,1,372,335.6) translate(0 25.19999999999999)"/><use xlink:href="#i" transform="matrix(1,0,0,1,372,335.6) translate(15.5 25.19999999999999)"/><use xlink:href="#j" transform="matrix(1,0,0,1,372,335.6) translate(68.35 25.19999999999999)"/><use xlink:href="#h" transform="matrix(1,0,0,1,372,335.6) translate(0 46.79999999999999)"/><use xlink:href="#k" transform="matrix(1,0,0,1,372,335.6) translate(15.5 46.79999999999999)"/><use xlink:href="#l" transform="matrix(1,0,0,1,372,335.6) translate(74.45 46.79999999999999)"/><use xlink:href="#m" transform="matrix(1,0,0,1,372,335.6) translate(0 68.39999999999999)"/><use xlink:href="#n" transform="matrix(1,0,0,1,372,335.6) translate(10.95 68.39999999999999)"/><use xlink:href="#o" transform="matrix(1,0,0,1,372,335.6) translate(63.900000000000006 68.39999999999999)"/><use xlink:href="#p" transform="matrix(1,0,0,1,372,335.6) translate(87.85000000000001 68.39999999999999)"/><use xlink:href="#q" transform="matrix(1,0,0,1,372,335.6) translate(103.35000000000001 68.39999999999999)"/><use xlink:href="#m" transform="matrix(1,0,0,1,372,335.6) translate(0 90)"/><use xlink:href="#r" transform="matrix(1,0,0,1,372,335.6) translate(10.95 90)"/><use xlink:href="#s" transform="matrix(1,0,0,1,372,335.6) translate(108.85000000000001 90)"/><use xlink:href="#h" transform="matrix(1,0,0,1,372,459.50000000000006) translate(0 25.19999999999999)"/><use xlink:href="#t" transform="matrix(1,0,0,1,372,459.50000000000006) translate(15.5 25.19999999999999)"/><use xlink:href="#h" transform="matrix(1,0,0,1,372,459.50000000000006) translate(0 46.79999999999999)"/><use xlink:href="#u" transform="matrix(1,0,0,1,372,459.50000000000006) translate(15.5 46.79999999999999)"/><use xlink:href="#l" transform="matrix(1,0,0,1,372,459.50000000000006) translate(92.25000000000001 46.79999999999999)"/><use xlink:href="#v" transform="matrix(1,0,0,1,372,459.50000000000006) translate(0 68.39999999999999)"/><use xlink:href="#w" transform="matrix(1,0,0,1,372,459.50000000000006) translate(15.5 68.39999999999999)"/><use xlink:href="#m" transform="matrix(1,0,0,1,372,459.50000000000006) translate(0 90)"/><use xlink:href="#x" transform="matrix(1,0,0,1,372,459.50000000000006) translate(10.95 90)"/><path d="M700 60h220v182H700z" stroke="#83bbe5" fill="#19355a"/><path d="M700 97.6h220m-220 50.6h220" stroke="#83bbe5" fill="none"/><use xlink:href="#y" transform="matrix(1,0,0,1,708,68) translate(88.025 14.6)"/><use xlink:href="#h" transform="matrix(1,0,0,1,712,156.2) translate(0 21)"/><use xlink:href="#u" transform="matrix(1,0,0,1,712,156.2) translate(15.5 21)"/><use xlink:href="#l" transform="matrix(1,0,0,1,712,156.2) translate(92.25000000000001 21)"/><use xlink:href="#v" transform="matrix(1,0,0,1,712,156.2) translate(0 42.6)"/><use xlink:href="#w" transform="matrix(1,0,0,1,712,156.2) translate(15.5 42.6)"/><use xlink:href="#m" transform="matrix(1,0,0,1,712,156.2) translate(0 64.2)"/><use xlink:href="#z" transform="matrix(1,0,0,1,712,156.2) translate(10.95 64.2)"/><path d="M80 440h160v100H80z" stroke="#83bbe5" fill="#19355a"/><g><use xlink:href="#A" transform="matrix(1,0,0,1,88,448) translate(30.574999999999996 45.6)"/></g><path d="M60 90h200v100H60z" stroke="#83bbe5" fill="#19355a"/><path d="M60 127.33h200" stroke="#83bbe5" fill="none"/><g><use xlink:href="#B" transform="matrix(1,0,0,1,68,98) translate(66.34567901234567 14.555555555555555)"/></g><g><use xlink:href="#C" transform="matrix(1,0,0,1,72,135.33333333333334) translate(0 27.055555555555557)"/><use xlink:href="#D" transform="matrix(1,0,0,1,72,135.33333333333334) translate(15.308641975308644 27.055555555555557)"/><use xlink:href="#E" transform="matrix(1,0,0,1,72,135.33333333333334) translate(58.765432098765444 27.055555555555557)"/></g><path d="M291.25 140h87.25" stroke="#83bbe5" stroke-width="2" fill="none"/><path d="M261.9 140l14.86-14.85L291.9 140l-15.14 14.85z" stroke="#83bbe5" stroke-width="2" fill="#fff"/><path d="M379.5 141h-1.03v-2h1.03z" fill="#83bbe5"/><g><use xlink:href="#F" transform="matrix(1,0,0,1,352.00000000000006,114.4) translate(0 14.4)"/></g><path d="M500 288.5v-53.52" fill="none"/><path d="M500 288.5v-4.46m0-8.92v-8.92m0-8.92v-8.92m0-8.92v-4.46" stroke="#83bbe5" stroke-width="2" fill="none"/><path d="M501 289.5h-2v-1.03h2z" fill="#83bbe5"/><path d="M512.73 233.98h-25.46L500 212.46z" fill="#fff"/><path d="M514.48 234.98h-28.96L500 210.5zm-25.45-2h21.94L500 214.43z" fill="#83bbe5"/><path d="M698.5 151H660v-11h-15.02" fill="none"/><path d="M698.5 151h-4.03m-8.07 0h-8.06m-8.07 0h-8.06m-2.2-5.86V140h-2.92m-8.06 0h-4.04" stroke="#83bbe5" stroke-width="2" fill="none"/><path d="M699.5 152h-1.03v-2h1.03z" fill="#83bbe5"/><path d="M643.98 152.73L622.46 140l21.52-12.73z" fill="#fff"/><path d="M644.98 154.48L620.5 140l24.48-14.48zM624.43 140l18.55 10.97v-21.94z" fill="#83bbe5"/><path d="M328.75 350H241.5" stroke="#83bbe5" stroke-width="2" fill="none"/><path d="M358.1 350l-14.86 14.85L328.1 350l15.14-14.85z" fill="#fff"/><path d="M359.5 350l-16.26 16.26L326.66 350l16.58-16.26zm-30 0l13.73 13.44L356.67 350l-13.44-13.44zM241.53 351h-1.03v-2h1.03z" fill="#83bbe5"/><g><use xlink:href="#G" transform="matrix(1,0,0,1,240.5,354) translate(0 14.4)"/></g><path d="M328.75 490.32H241.5" stroke="#83bbe5" stroke-width="2" fill="none"/><path d="M358.1 490.32l-14.86 14.85-15.15-14.85 15.14-14.85z" fill="#fff"/><path d="M359.5 490.32l-16.26 16.26-16.58-16.26 16.58-16.25zm-30 0l13.73 13.44 13.44-13.44-13.44-13.44zM241.53 491.32h-1.03v-2h1.03z" fill="#83bbe5"/><g><use xlink:href="#F" transform="matrix(1,0,0,1,240.99999999999994,494.32145569758217) translate(0 14.4)"/></g><defs><path fill="#e5e5e5" d="M212-179c-10-28-35-45-73-45-59 0-87 40-87 99 0 60 29 101 89 101 43 0 62-24 78-52l27 14C228-24 195 4 139 4 59 4 22-46 18-125c-6-104 99-153 187-111 19 9 31 26 39 46" id="H"/><path fill="#e5e5e5" d="M100-194c62-1 85 37 85 99 1 63-27 99-86 99S16-35 15-95c0-66 28-99 85-99zM99-20c44 1 53-31 53-75 0-43-8-75-51-75s-53 32-53 75 10 74 51 75" id="I"/><path fill="#e5e5e5" d="M24 0v-261h32V0H24" id="J"/><path fill="#e5e5e5" d="M141-36C126-15 110 5 73 4 37 3 15-17 15-53c-1-64 63-63 125-63 3-35-9-54-41-54-24 1-41 7-42 31l-33-3c5-37 33-52 76-52 45 0 72 20 72 64v82c-1 20 7 32 28 27v20c-31 9-61-2-59-35zM48-53c0 20 12 33 32 33 41-3 63-29 60-74-43 2-92-5-92 41" id="K"/><path fill="#e5e5e5" d="M114-163C36-179 61-72 57 0H25l-1-190h30c1 12-1 29 2 39 6-27 23-49 58-41v29" id="L"/><g id="a"><use transform="matrix(0.05,0,0,0.05,0,0)" xlink:href="#H"/><use transform="matrix(0.05,0,0,0.05,12.950000000000001,0)" xlink:href="#I"/><use transform="matrix(0.05,0,0,0.05,22.950000000000003,0)" xlink:href="#J"/><use transform="matrix(0.05,0,0,0.05,26.900000000000002,0)" xlink:href="#J"/><use transform="matrix(0.05,0,0,0.05,30.85,0)" xlink:href="#K"/><use transform="matrix(0.05,0,0,0.05,40.85,0)" xlink:href="#L"/></g><path fill="#e5e5e5" d="M15-91v-56l181-69v40L49-119l147 57v40" id="M"/><path fill="#e5e5e5" d="M25-224v-37h50v37H25zM25 0v-190h50V0H25" id="N"/><path fill="#e5e5e5" d="M135-194c87-1 58 113 63 194h-50c-7-57 23-157-34-157-59 0-34 97-39 157H25l-1-190h47c2 12-1 28 3 38 12-26 28-41 61-42" id="O"/><path fill="#e5e5e5" d="M115-3C79 11 28 4 28-45v-112H4v-33h27l15-45h31v45h36v33H77v99c-1 23 16 31 38 25v30" id="P"/><path fill="#e5e5e5" d="M185-48c-13 30-37 53-82 52C43 2 14-33 14-96s30-98 90-98c62 0 83 45 84 108H66c0 31 8 55 39 56 18 0 30-7 34-22zm-45-69c5-46-57-63-70-21-2 6-4 13-4 21h74" id="Q"/><path fill="#e5e5e5" d="M135-150c-39-12-60 13-60 57V0H25l-1-190h47c2 13-1 29 3 40 6-28 27-53 61-41v41" id="R"/><path fill="#e5e5e5" d="M121-226c-27-7-43 5-38 36h38v33H83V0H34v-157H6v-33h28c-9-59 32-81 87-68v32" id="S"/><path fill="#e5e5e5" d="M133-34C117-15 103 5 69 4 32 3 11-16 11-54c-1-60 55-63 116-61 1-26-3-47-28-47-18 1-26 9-28 27l-52-2c7-38 36-58 82-57s74 22 75 68l1 82c-1 14 12 18 25 15v27c-30 8-71 5-69-32zm-48 3c29 0 43-24 42-57-32 0-66-3-65 30 0 17 8 27 23 27" id="T"/><path fill="#e5e5e5" d="M190-63c-7 42-38 67-86 67-59 0-84-38-90-98-12-110 154-137 174-36l-49 2c-2-19-15-32-35-32-30 0-35 28-38 64-6 74 65 87 74 30" id="U"/><path fill="#e5e5e5" d="M15-22v-40l146-57-146-57v-40l181 69v56" id="V"/><g id="b"><use transform="matrix(0.05,0,0,0.05,0,0)" xlink:href="#M"/><use transform="matrix(0.05,0,0,0.05,10.5,0)" xlink:href="#M"/><use transform="matrix(0.05,0,0,0.05,21,0)" xlink:href="#N"/><use transform="matrix(0.05,0,0,0.05,26,0)" xlink:href="#O"/><use transform="matrix(0.05,0,0,0.05,36.95,0)" xlink:href="#P"/><use transform="matrix(0.05,0,0,0.05,42.900000000000006,0)" xlink:href="#Q"/><use transform="matrix(0.05,0,0,0.05,52.900000000000006,0)" xlink:href="#R"/><use transform="matrix(0.05,0,0,0.05,59.900000000000006,0)" xlink:href="#S"/><use transform="matrix(0.05,0,0,0.05,65.85000000000001,0)" xlink:href="#T"/><use transform="matrix(0.05,0,0,0.05,75.85000000000001,0)" xlink:href="#U"/><use transform="matrix(0.05,0,0,0.05,85.85000000000001,0)" xlink:href="#Q"/><use transform="matrix(0.05,0,0,0.05,95.85000000000001,0)" xlink:href="#V"/><use transform="matrix(0.05,0,0,0.05,106.35000000000001,0)" xlink:href="#V"/></g><path fill="#e5e5e5" d="M199 0l-22-63H83L61 0H9l90-248h61L250 0h-51zm-33-102l-36-108c-10 38-24 72-36 108h72" id="W"/><path fill="#e5e5e5" d="M220-157c-53 9-28 100-34 157h-49v-107c1-27-5-49-29-50C55-147 81-57 75 0H25l-1-190h47c2 12-1 28 3 38 10-53 101-56 108 0 13-22 24-43 59-42 82 1 51 116 57 194h-49v-107c-1-25-5-48-29-50" id="X"/><path fill="#e5e5e5" d="M25 0v-261h50V0H25" id="Y"/><g id="c"><use transform="matrix(0.05,0,0,0.05,0,0)" xlink:href="#W"/><use transform="matrix(0.05,0,0,0.05,12.950000000000001,0)" xlink:href="#O"/><use transform="matrix(0.05,0,0,0.05,23.900000000000002,0)" xlink:href="#N"/><use transform="matrix(0.05,0,0,0.05,28.900000000000002,0)" xlink:href="#X"/><use transform="matrix(0.05,0,0,0.05,44.900000000000006,0)" xlink:href="#T"/><use transform="matrix(0.05,0,0,0.05,54.900000000000006,0)" xlink:href="#Y"/></g><path fill="#e5e5e5" d="M206 0h-36l-40-164L89 0H53L-1-190h32L70-26l43-164h34l41 164 42-164h31" id="Z"/><path fill="#e5e5e5" d="M143 0L79-87 56-68V0H24v-261h32v163l83-92h37l-77 82L181 0h-38" id="aa"/><path fill="#e5e5e5" d="M87 75C49 33 22-17 22-94c0-76 28-126 65-167h31c-38 41-64 92-64 168S80 34 118 75H87" id="ab"/><path fill="#e5e5e5" d="M24-231v-30h32v30H24zM24 0v-190h32V0H24" id="ac"/><path fill="#e5e5e5" d="M117-194c89-4 53 116 60 194h-32v-121c0-31-8-49-39-48C34-167 62-67 57 0H25l-1-190h30c1 10-1 24 2 32 11-22 29-35 61-36" id="ad"/><path fill="#e5e5e5" d="M59-47c-2 24 18 29 38 22v24C64 9 27 4 27-40v-127H5v-23h24l9-43h21v43h35v23H59v120" id="ae"/><path fill="#e5e5e5" d="M33-261c38 41 65 92 65 168S71 34 33 75H2C39 34 66-17 66-93S39-220 2-261h31" id="af"/><path fill="#e5e5e5" d="M33-154v-36h34v36H33zM33 0v-36h34V0H33" id="ag"/><g id="d"><use transform="matrix(0.05,0,0,0.05,0,0)" xlink:href="#Z"/><use transform="matrix(0.05,0,0,0.05,12.950000000000001,0)" xlink:href="#K"/><use transform="matrix(0.05,0,0,0.05,22.950000000000003,0)" xlink:href="#J"/><use transform="matrix(0.05,0,0,0.05,26.900000000000002,0)" xlink:href="#aa"/><use transform="matrix(0.05,0,0,0.05,35.900000000000006,0)" xlink:href="#ab"/><use transform="matrix(0.05,0,0,0.05,41.85000000000001,0)" xlink:href="#ac"/><use transform="matrix(0.05,0,0,0.05,45.80000000000001,0)" xlink:href="#ad"/><use transform="matrix(0.05,0,0,0.05,55.80000000000001,0)" xlink:href="#ae"/><use transform="matrix(0.05,0,0,0.05,60.80000000000001,0)" xlink:href="#af"/><use transform="matrix(0.05,0,0,0.05,66.75000000000001,0)" xlink:href="#ag"/></g><g id="e"><use transform="matrix(0.05,0,0,0.05,0,0)" xlink:href="#ac"/><use transform="matrix(0.05,0,0,0.05,3.95,0)" xlink:href="#ad"/><use transform="matrix(0.05,0,0,0.05,13.949999999999998,0)" xlink:href="#ae"/></g><path fill="#e5e5e5" d="M210-169c-67 3-38 105-44 169h-31v-121c0-29-5-50-35-48C34-165 62-65 56 0H25l-1-190h30c1 10-1 24 2 32 10-44 99-50 107 0 11-21 27-35 58-36 85-2 47 119 55 194h-31v-121c0-29-5-49-35-48" id="ah"/><path fill="#e5e5e5" d="M100-194c63 0 86 42 84 106H49c0 40 14 67 53 68 26 1 43-12 49-29l28 8c-11 28-37 45-77 45C44 4 14-33 15-96c1-61 26-98 85-98zm52 81c6-60-76-77-97-28-3 7-6 17-6 28h103" id="ai"/><path fill="#e5e5e5" d="M185-189c-5-48-123-54-124 2 14 75 158 14 163 119 3 78-121 87-175 55-17-10-28-26-33-46l33-7c5 56 141 63 141-1 0-78-155-14-162-118-5-82 145-84 179-34 5 7 8 16 11 25" id="aj"/><path fill="#e5e5e5" d="M84 4C-5 8 30-112 23-190h32v120c0 31 7 50 39 49 72-2 45-101 50-169h31l1 190h-30c-1-10 1-25-2-33-11 22-28 36-60 37" id="ak"/><path fill="#e5e5e5" d="M85-194c31 0 48 13 60 33l-1-100h32l1 261h-30c-2-10 0-23-3-31C134-8 116 4 85 4 32 4 16-35 15-94c0-66 23-100 70-100zm9 24c-40 0-46 34-46 75 0 40 6 74 45 74 42 0 51-32 51-76 0-42-9-74-50-73" id="al"/><g id="f"><use transform="matrix(0.05,0,0,0.05,0,0)" xlink:href="#ah"/><use transform="matrix(0.05,0,0,0.05,14.950000000000001,0)" xlink:href="#K"/><use transform="matrix(0.05,0,0,0.05,24.950000000000003,0)" xlink:href="#aa"/><use transform="matrix(0.05,0,0,0.05,33.95,0)" xlink:href="#ai"/><use transform="matrix(0.05,0,0,0.05,43.95,0)" xlink:href="#aj"/><use transform="matrix(0.05,0,0,0.05,55.95,0)" xlink:href="#I"/><use transform="matrix(0.05,0,0,0.05,65.95,0)" xlink:href="#ak"/><use transform="matrix(0.05,0,0,0.05,75.95,0)" xlink:href="#ad"/><use transform="matrix(0.05,0,0,0.05,85.95,0)" xlink:href="#al"/><use transform="matrix(0.05,0,0,0.05,95.95,0)" xlink:href="#ab"/><use transform="matrix(0.05,0,0,0.05,101.9,0)" xlink:href="#ac"/><use transform="matrix(0.05,0,0,0.05,105.85000000000001,0)" xlink:href="#ad"/><use transform="matrix(0.05,0,0,0.05,115.85000000000001,0)" xlink:href="#ae"/><use transform="matrix(0.05,0,0,0.05,120.85000000000001,0)" xlink:href="#af"/></g><path fill="#e5e5e5" d="M30-248c118-7 216 8 213 122C240-48 200 0 122 0H30v-248zM63-27c89 8 146-16 146-99s-60-101-146-95v194" id="am"/><path fill="#e5e5e5" d="M177-190C167-65 218 103 67 71c-23-6-38-20-44-43l32-5c15 47 100 32 89-28v-30C133-14 115 1 83 1 29 1 15-40 15-95c0-56 16-97 71-98 29-1 48 16 59 35 1-10 0-23 2-32h30zM94-22c36 0 50-32 50-73 0-42-14-75-50-75-39 0-46 34-46 75s6 73 46 73" id="an"/><g id="g"><use transform="matrix(0.05,0,0,0.05,0,0)" xlink:href="#am"/><use transform="matrix(0.05,0,0,0.05,12.950000000000001,0)" xlink:href="#I"/><use transform="matrix(0.05,0,0,0.05,22.950000000000003,0)" xlink:href="#an"/></g><path fill="#e5e5e5" d="M118-107v75H92v-75H18v-26h74v-75h26v75h74v26h-74" id="ao"/><use transform="matrix(0.05,0,0,0.05,0,0)" xlink:href="#ao" id="h"/><path fill="#e5e5e5" d="M96-169c-40 0-48 33-48 73s9 75 48 75c24 0 41-14 43-38l32 2c-6 37-31 61-74 61-59 0-76-41-82-99-10-93 101-131 147-64 4 7 5 14 7 22l-32 3c-4-21-16-35-41-35" id="ap"/><g id="i"><use transform="matrix(0.05,0,0,0.05,0,0)" xlink:href="#ap"/><use transform="matrix(0.05,0,0,0.05,9,0)" xlink:href="#I"/><use transform="matrix(0.05,0,0,0.05,19,0)" xlink:href="#J"/><use transform="matrix(0.05,0,0,0.05,22.95,0)" xlink:href="#J"/><use transform="matrix(0.05,0,0,0.05,26.899999999999995,0)" xlink:href="#K"/><use transform="matrix(0.05,0,0,0.05,36.9,0)" xlink:href="#L"/><use transform="matrix(0.05,0,0,0.05,42.85,0)" xlink:href="#ag"/></g><g id="j"><use transform="matrix(0.05,0,0,0.05,0,0)" xlink:href="#H"/><use transform="matrix(0.05,0,0,0.05,12.950000000000001,0)" xlink:href="#I"/><use transform="matrix(0.05,0,0,0.05,22.950000000000003,0)" xlink:href="#J"/><use transform="matrix(0.05,0,0,0.05,26.900000000000002,0)" xlink:href="#J"/><use transform="matrix(0.05,0,0,0.05,30.85,0)" xlink:href="#K"/><use transform="matrix(0.05,0,0,0.05,40.85,0)" xlink:href="#L"/></g><path fill="#e5e5e5" d="M106-169C34-169 62-67 57 0H25v-261h32l-1 103c12-21 28-36 61-36 89 0 53 116 60 194h-32v-121c2-32-8-49-39-48" id="aq"/><g id="k"><use transform="matrix(0.05,0,0,0.05,0,0)" xlink:href="#aq"/><use transform="matrix(0.05,0,0,0.05,10,0)" xlink:href="#ai"/><use transform="matrix(0.05,0,0,0.05,20,0)" xlink:href="#ac"/><use transform="matrix(0.05,0,0,0.05,23.95,0)" xlink:href="#an"/><use transform="matrix(0.05,0,0,0.05,33.95,0)" xlink:href="#aq"/><use transform="matrix(0.05,0,0,0.05,43.95,0)" xlink:href="#ae"/><use transform="matrix(0.05,0,0,0.05,48.95,0)" xlink:href="#ag"/></g><g id="l"><use transform="matrix(0.05,0,0,0.05,0,0)" xlink:href="#ac"/><use transform="matrix(0.05,0,0,0.05,3.95,0)" xlink:href="#ad"/><use transform="matrix(0.05,0,0,0.05,13.949999999999998,0)" xlink:href="#ae"/></g><path fill="#e5e5e5" d="M16-82v-28h88v28H16" id="ar"/><use transform="matrix(0.05,0,0,0.05,0,0)" xlink:href="#ar" id="m"/><path fill="#e5e5e5" d="M115-194c55 1 70 41 70 98S169 2 115 4C84 4 66-9 55-30l1 105H24l-1-265h31l2 30c10-21 28-34 59-34zm-8 174c40 0 45-34 45-75s-6-73-45-74c-42 0-51 32-51 76 0 43 10 73 51 73" id="as"/><path fill="#e5e5e5" d="M135-143c-3-34-86-38-87 0 15 53 115 12 119 90S17 21 10-45l28-5c4 36 97 45 98 0-10-56-113-15-118-90-4-57 82-63 122-42 12 7 21 19 24 35" id="at"/><g id="n"><use transform="matrix(0.05,0,0,0.05,0,0)" xlink:href="#as"/><use transform="matrix(0.05,0,0,0.05,10,0)" xlink:href="#ak"/><use transform="matrix(0.05,0,0,0.05,20,0)" xlink:href="#J"/><use transform="matrix(0.05,0,0,0.05,23.95,0)" xlink:href="#at"/><use transform="matrix(0.05,0,0,0.05,32.95,0)" xlink:href="#ai"/><use transform="matrix(0.05,0,0,0.05,42.95,0)" xlink:href="#ag"/></g><g id="o"><use transform="matrix(0.05,0,0,0.05,0,0)" xlink:href="#ac"/><use transform="matrix(0.05,0,0,0.05,3.95,0)" xlink:href="#ad"/><use transform="matrix(0.05,0,0,0.05,13.949999999999998,0)" xlink:href="#ae"/></g><path fill="#e5e5e5" d="M18-150v-26h174v26H18zm0 90v-26h174v26H18" id="au"/><use transform="matrix(0.05,0,0,0.05,0,0)" xlink:href="#au" id="p"/><path fill="#e5e5e5" d="M27 0v-27h64v-190l-56 39v-29l58-41h29v221h61V0H27" id="av"/><path fill="#e5e5e5" d="M101-251c82-7 93 87 43 132L82-64C71-53 59-42 53-27h129V0H18c2-99 128-94 128-182 0-28-16-43-45-43s-46 15-49 41l-32-3c6-41 34-60 81-64" id="aw"/><path fill="#e5e5e5" d="M101-251c68 0 85 55 85 127S166 4 100 4C33 4 14-52 14-124c0-73 17-127 87-127zm-1 229c47 0 54-49 54-102s-4-102-53-102c-51 0-55 48-55 102 0 53 5 102 54 102" id="ax"/><g id="q"><use transform="matrix(0.05,0,0,0.05,0,0)" xlink:href="#av"/><use transform="matrix(0.05,0,0,0.05,10,0)" xlink:href="#aw"/><use transform="matrix(0.05,0,0,0.05,20,0)" xlink:href="#ax"/></g><g id="r"><use transform="matrix(0.05,0,0,0.05,0,0)" xlink:href="#ap"/><use transform="matrix(0.05,0,0,0.05,9,0)" xlink:href="#I"/><use transform="matrix(0.05,0,0,0.05,19,0)" xlink:href="#ah"/><use transform="matrix(0.05,0,0,0.05,33.95,0)" xlink:href="#ah"/><use transform="matrix(0.05,0,0,0.05,48.900000000000006,0)" xlink:href="#K"/><use transform="matrix(0.05,0,0,0.05,58.900000000000006,0)" xlink:href="#ad"/><use transform="matrix(0.05,0,0,0.05,68.9,0)" xlink:href="#al"/><use transform="matrix(0.05,0,0,0.05,78.9,0)" xlink:href="#at"/><use transform="matrix(0.05,0,0,0.05,87.9,0)" xlink:href="#ag"/></g><path fill="#e5e5e5" d="M30 0v-248h33v221h125V0H30" id="ay"/><path fill="#e5e5e5" d="M18-100v-36l175-74v27L42-118l151 64v27" id="az"/><path fill="#e5e5e5" d="M18-27v-27l151-64-151-65v-27l175 74v36" id="aA"/><g id="s"><use transform="matrix(0.05,0,0,0.05,0,0)" xlink:href="#ay"/><use transform="matrix(0.05,0,0,0.05,10,0)" xlink:href="#ac"/><use transform="matrix(0.05,0,0,0.05,13.949999999999998,0)" xlink:href="#at"/><use transform="matrix(0.05,0,0,0.05,22.95,0)" xlink:href="#ae"/><use transform="matrix(0.05,0,0,0.05,27.950000000000003,0)" xlink:href="#az"/><use transform="matrix(0.05,0,0,0.05,38.45,0)" xlink:href="#H"/><use transform="matrix(0.05,0,0,0.05,51.400000000000006,0)" xlink:href="#I"/><use transform="matrix(0.05,0,0,0.05,61.400000000000006,0)" xlink:href="#ah"/><use transform="matrix(0.05,0,0,0.05,76.35000000000001,0)" xlink:href="#ah"/><use transform="matrix(0.05,0,0,0.05,91.30000000000001,0)" xlink:href="#K"/><use transform="matrix(0.05,0,0,0.05,101.30000000000001,0)" xlink:href="#ad"/><use transform="matrix(0.05,0,0,0.05,111.30000000000001,0)" xlink:href="#al"/><use transform="matrix(0.05,0,0,0.05,121.30000000000001,0)" xlink:href="#aA"/></g><g id="t"><use transform="matrix(0.05,0,0,0.05,0,0)" xlink:href="#am"/><use transform="matrix(0.05,0,0,0.05,12.950000000000001,0)" xlink:href="#I"/><use transform="matrix(0.05,0,0,0.05,22.950000000000003,0)" xlink:href="#an"/><use transform="matrix(0.05,0,0,0.05,32.95,0)" xlink:href="#ab"/><use transform="matrix(0.05,0,0,0.05,38.900000000000006,0)" xlink:href="#af"/></g><g id="u"><use transform="matrix(0.05,0,0,0.05,0,0)" xlink:href="#Z"/><use transform="matrix(0.05,0,0,0.05,12.950000000000001,0)" xlink:href="#K"/><use transform="matrix(0.05,0,0,0.05,22.950000000000003,0)" xlink:href="#J"/><use transform="matrix(0.05,0,0,0.05,26.900000000000002,0)" xlink:href="#aa"/><use transform="matrix(0.05,0,0,0.05,35.900000000000006,0)" xlink:href="#ab"/><use transform="matrix(0.05,0,0,0.05,41.85000000000001,0)" xlink:href="#ac"/><use transform="matrix(0.05,0,0,0.05,45.80000000000001,0)" xlink:href="#ad"/><use transform="matrix(0.05,0,0,0.05,55.80000000000001,0)" xlink:href="#ae"/><use transform="matrix(0.05,0,0,0.05,60.80000000000001,0)" xlink:href="#af"/><use transform="matrix(0.05,0,0,0.05,66.75000000000001,0)" xlink:href="#ag"/></g><use transform="matrix(0.05,0,0,0.05,0,0)" xlink:href="#ao" id="v"/><g id="w"><use transform="matrix(0.05,0,0,0.05,0,0)" xlink:href="#ah"/><use transform="matrix(0.05,0,0,0.05,14.950000000000001,0)" xlink:href="#K"/><use transform="matrix(0.05,0,0,0.05,24.950000000000003,0)" xlink:href="#aa"/><use transform="matrix(0.05,0,0,0.05,33.95,0)" xlink:href="#ai"/><use transform="matrix(0.05,0,0,0.05,43.95,0)" xlink:href="#aj"/><use transform="matrix(0.05,0,0,0.05,55.95,0)" xlink:href="#I"/><use transform="matrix(0.05,0,0,0.05,65.95,0)" xlink:href="#ak"/><use transform="matrix(0.05,0,0,0.05,75.95,0)" xlink:href="#ad"/><use transform="matrix(0.05,0,0,0.05,85.95,0)" xlink:href="#al"/><use transform="matrix(0.05,0,0,0.05,95.95,0)" xlink:href="#ab"/><use transform="matrix(0.05,0,0,0.05,101.9,0)" xlink:href="#ac"/><use transform="matrix(0.05,0,0,0.05,105.85000000000001,0)" xlink:href="#ad"/><use transform="matrix(0.05,0,0,0.05,115.85000000000001,0)" xlink:href="#ae"/><use transform="matrix(0.05,0,0,0.05,120.85000000000001,0)" xlink:href="#af"/></g><path fill="#e5e5e5" d="M115-194c53 0 69 39 70 98 0 66-23 100-70 100C84 3 66-7 56-30L54 0H23l1-261h32v101c10-23 28-34 59-34zm-8 174c40 0 45-34 45-75 0-40-5-75-45-74-42 0-51 32-51 76 0 43 10 73 51 73" id="aB"/><g id="x"><use transform="matrix(0.05,0,0,0.05,0,0)" xlink:href="#aB"/><use transform="matrix(0.05,0,0,0.05,10,0)" xlink:href="#K"/><use transform="matrix(0.05,0,0,0.05,20,0)" xlink:href="#L"/><use transform="matrix(0.05,0,0,0.05,25.950000000000003,0)" xlink:href="#aa"/><use transform="matrix(0.05,0,0,0.05,34.95,0)" xlink:href="#ab"/><use transform="matrix(0.05,0,0,0.05,40.900000000000006,0)" xlink:href="#ac"/><use transform="matrix(0.05,0,0,0.05,44.85000000000001,0)" xlink:href="#ad"/><use transform="matrix(0.05,0,0,0.05,54.85,0)" xlink:href="#ae"/><use transform="matrix(0.05,0,0,0.05,59.85,0)" xlink:href="#af"/></g><g id="y"><use transform="matrix(0.05,0,0,0.05,0,0)" xlink:href="#H"/><use transform="matrix(0.05,0,0,0.05,12.950000000000001,0)" xlink:href="#K"/><use transform="matrix(0.05,0,0,0.05,22.950000000000003,0)" xlink:href="#ae"/></g><g id="z"><use transform="matrix(0.05,0,0,0.05,0,0)" xlink:href="#ah"/><use transform="matrix(0.05,0,0,0.05,14.950000000000001,0)" xlink:href="#ai"/><use transform="matrix(0.05,0,0,0.05,24.950000000000003,0)" xlink:href="#I"/><use transform="matrix(0.05,0,0,0.05,34.95,0)" xlink:href="#Z"/><use transform="matrix(0.05,0,0,0.05,47.900000000000006,0)" xlink:href="#ab"/><use transform="matrix(0.05,0,0,0.05,53.85,0)" xlink:href="#ac"/><use transform="matrix(0.05,0,0,0.05,57.80000000000001,0)" xlink:href="#ad"/><use transform="matrix(0.05,0,0,0.05,67.80000000000001,0)" xlink:href="#ae"/><use transform="matrix(0.05,0,0,0.05,72.80000000000001,0)" xlink:href="#af"/></g><g id="A"><use transform="matrix(0.05,0,0,0.05,0,0)" xlink:href="#H"/><use transform="matrix(0.05,0,0,0.05,12.950000000000001,0)" xlink:href="#I"/><use transform="matrix(0.05,0,0,0.05,22.950000000000003,0)" xlink:href="#ah"/><use transform="matrix(0.05,0,0,0.05,37.900000000000006,0)" xlink:href="#ah"/><use transform="matrix(0.05,0,0,0.05,52.85,0)" xlink:href="#K"/><use transform="matrix(0.05,0,0,0.05,62.85,0)" xlink:href="#ad"/><use transform="matrix(0.05,0,0,0.05,72.85000000000001,0)" xlink:href="#al"/></g><path fill="#e5e5e5" d="M197 0v-115H63V0H30v-248h33v105h134v-105h34V0h-34" id="aC"/><g id="B"><use transform="matrix(0.04938271604938272,0,0,0.04938271604938272,0,0)" xlink:href="#aC"/><use transform="matrix(0.04938271604938272,0,0,0.04938271604938272,12.790123456790125,0)" xlink:href="#I"/><use transform="matrix(0.04938271604938272,0,0,0.04938271604938272,22.66666666666667,0)" xlink:href="#ak"/><use transform="matrix(0.04938271604938272,0,0,0.04938271604938272,32.543209876543216,0)" xlink:href="#at"/><use transform="matrix(0.04938271604938272,0,0,0.04938271604938272,41.4320987654321,0)" xlink:href="#ai"/></g><use transform="matrix(0.04938271604938272,0,0,0.04938271604938272,0,0)" xlink:href="#ao" id="C"/><g id="D"><use transform="matrix(0.04938271604938272,0,0,0.04938271604938272,0,0)" xlink:href="#as"/><use transform="matrix(0.04938271604938272,0,0,0.04938271604938272,9.876543209876544,0)" xlink:href="#ai"/><use transform="matrix(0.04938271604938272,0,0,0.04938271604938272,19.75308641975309,0)" xlink:href="#ae"/><use transform="matrix(0.04938271604938272,0,0,0.04938271604938272,24.69135802469136,0)" xlink:href="#at"/><use transform="matrix(0.04938271604938272,0,0,0.04938271604938272,33.580246913580254,0)" xlink:href="#ag"/></g><path fill="#e5e5e5" d="M205 0l-28-72H64L36 0H1l101-248h38L239 0h-34zm-38-99l-47-123c-12 45-31 82-46 123h93" id="aD"/><g id="E"><use transform="matrix(0.04938271604938272,0,0,0.04938271604938272,0,0)" xlink:href="#ay"/><use transform="matrix(0.04938271604938272,0,0,0.04938271604938272,9.876543209876544,0)" xlink:href="#ac"/><use transform="matrix(0.04938271604938272,0,0,0.04938271604938272,13.777777777777779,0)" xlink:href="#at"/><use transform="matrix(0.04938271604938272,0,0,0.04938271604938272,22.666666666666668,0)" xlink:href="#ae"/><use transform="matrix(0.04938271604938272,0,0,0.04938271604938272,27.60493827160494,0)" xlink:href="#az"/><use transform="matrix(0.04938271604938272,0,0,0.04938271604938272,37.97530864197531,0)" xlink:href="#aD"/><use transform="matrix(0.04938271604938272,0,0,0.04938271604938272,49.827160493827165,0)" xlink:href="#ad"/><use transform="matrix(0.04938271604938272,0,0,0.04938271604938272,59.70370370370371,0)" xlink:href="#ac"/><use transform="matrix(0.04938271604938272,0,0,0.04938271604938272,63.604938271604944,0)" xlink:href="#ah"/><use transform="matrix(0.04938271604938272,0,0,0.04938271604938272,78.37037037037038,0)" xlink:href="#K"/><use transform="matrix(0.04938271604938272,0,0,0.04938271604938272,88.24691358024693,0)" xlink:href="#J"/><use transform="matrix(0.04938271604938272,0,0,0.04938271604938272,92.14814814814817,0)" xlink:href="#aA"/></g><path fill="#fff" d="M101-251c68 0 85 55 85 127S166 4 100 4C33 4 14-52 14-124c0-73 17-127 87-127zm-1 229c47 0 54-49 54-102s-4-102-53-102c-51 0-55 48-55 102 0 53 5 102 54 102" id="aE"/><path fill="#fff" d="M33 0v-38h34V0H33" id="aF"/><path fill="#fff" d="M80-196l47-18 7 23-49 13 32 44-20 13-27-46-27 45-21-12 33-44-49-13 8-23 47 19-2-53h23" id="aG"/><g id="F"><use transform="matrix(0.05,0,0,0.05,0,0)" xlink:href="#aE"/><use transform="matrix(0.05,0,0,0.05,10,0)" xlink:href="#aF"/><use transform="matrix(0.05,0,0,0.05,15,0)" xlink:href="#aF"/><use transform="matrix(0.05,0,0,0.05,20,0)" xlink:href="#aG"/></g><path fill="#fff" d="M27 0v-27h64v-190l-56 39v-29l58-41h29v221h61V0H27" id="aH"/><use transform="matrix(0.05,0,0,0.05,0,0)" xlink:href="#aH" id="G"/></defs></g></svg>