<svg xmlns="http://www.w3.org/2000/svg" xmlns:xlink="http://www.w3.org/1999/xlink" xmlns:lucid="lucid" width="820" height="499"><g transform="translate(-40 -40)" lucid:page-tab-id="YGcM5DNywbTK"><path d="M60 60h300v177H60z" stroke="#83bbe5" fill="#19355a"/><path d="M60 97.6h300M60 156.7h300" stroke="#83bbe5" fill="none"/><use xlink:href="#a" transform="matrix(1,0,0,1,68,68) translate(107.57499999999999 14.6)"/><use xlink:href="#b" transform="matrix(1,0,0,1,72,105.6) translate(0 25.6)"/><use xlink:href="#c" transform="matrix(1,0,0,1,72,105.6) translate(15.5 25.6)"/><use xlink:href="#d" transform="matrix(1,0,0,1,72,105.6) translate(96.4 25.6)"/><use xlink:href="#b" transform="matrix(1,0,0,1,72,164.7) translate(0 25.299999999999997)"/><use xlink:href="#e" transform="matrix(1,0,0,1,72,164.7) translate(15.5 25.299999999999997)"/><use xlink:href="#b" transform="matrix(1,0,0,1,72,164.7) translate(0 46.9)"/><use xlink:href="#f" transform="matrix(1,0,0,1,72,164.7) translate(15.5 46.9)"/><path d="M440 60h400v177H440z" stroke="#83bbe5" fill="#19355a"/><path d="M440 97.6h400m-400 59.1h400" stroke="#83bbe5" fill="none"/><use xlink:href="#g" transform="matrix(1,0,0,1,448,68) translate(108.1 14.6)"/><use xlink:href="#b" transform="matrix(1,0,0,1,452,105.6) translate(0 25.6)"/><use xlink:href="#h" transform="matrix(1,0,0,1,452,105.6) translate(15.5 25.6)"/><use xlink:href="#i" transform="matrix(1,0,0,1,452,105.6) translate(89.45 25.6)"/><use xlink:href="#b" transform="matrix(1,0,0,1,452,164.7) translate(0 25.299999999999997)"/><use xlink:href="#j" transform="matrix(1,0,0,1,452,164.7) translate(15.5 25.299999999999997)"/><use xlink:href="#b" transform="matrix(1,0,0,1,452,164.7) translate(0 46.9)"/><use xlink:href="#k" transform="matrix(1,0,0,1,452,164.7) translate(15.5 46.9)"/><path d="M391.25 148.5h47.25" stroke="#83bbe5" stroke-width="2" fill="none"/><path d="M391.9 148.5l-15.14 14.85-14.85-14.85 14.86-14.85z" fill="#fff"/><path d="M393.34 148.5l-16.58 16.26-16.26-16.26 16.26-16.26zm-30 0l13.43 13.44 13.72-13.44-13.73-13.44zM439.5 149.5h-1.03v-2h1.03z" fill="#83bbe5"/><use xlink:href="#l" transform="matrix(1,0,0,1,429.5,122.89999999999999) translate(0 14.4)"/><path d="M500 320h280v199H500z" stroke="#83bbe5" fill="#19355a"/><path d="M500 357.6h280m-280 80.7h280" stroke="#83bbe5" fill="none"/><use xlink:href="#m" transform="matrix(1,0,0,1,508,328) translate(83.55 14.6)"/><use xlink:href="#b" transform="matrix(1,0,0,1,512,365.6) translate(0 25.299999999999997)"/><use xlink:href="#n" transform="matrix(1,0,0,1,512,365.6) translate(15.5 25.299999999999997)"/><use xlink:href="#o" transform="matrix(1,0,0,1,512,365.6) translate(58.4 25.299999999999997)"/><use xlink:href="#b" transform="matrix(1,0,0,1,512,365.6) translate(0 46.9)"/><use xlink:href="#p" transform="matrix(1,0,0,1,512,365.6) translate(15.5 46.9)"/><use xlink:href="#q" transform="matrix(1,0,0,1,512,365.6) translate(104.35 46.9)"/><g><use xlink:href="#b" transform="matrix(1,0,0,1,512,446.3) translate(0 25.299999999999997)"/><use xlink:href="#r" transform="matrix(1,0,0,1,512,446.3) translate(15.5 25.299999999999997)"/><use xlink:href="#b" transform="matrix(1,0,0,1,512,446.3) translate(0 46.9)"/><use xlink:href="#k" transform="matrix(1,0,0,1,512,446.3) translate(15.5 46.9)"/></g><path d="M640 268.25v50.25" stroke="#83bbe5" stroke-width="2" fill="none"/><path d="M654.85 253.76L640 268.9l-14.85-15.14L640 238.9z" fill="#fff"/><path d="M656.26 253.76L640 270.34l-16.26-16.58L640 237.5zm-29.7 0L640 267.5l13.44-13.73L640 240.33zM641 319.5h-2v-1.03h2z" fill="#83bbe5"/><g><use xlink:href="#s" transform="matrix(1,0,0,1,648,297.7) translate(0 14.4)"/></g><path d="M130 359h160v121H130z" stroke="#83bbe5" fill="#19355a"/><g><use xlink:href="#t" transform="matrix(1,0,0,1,138,367) translate(10.124999999999993 56.1)"/></g><path d="M468.75 419.5H291.5" stroke="#83bbe5" stroke-width="2" fill="none"/><path d="M498.1 419.5l-14.86 14.85-15.15-14.85 15.14-14.85z" fill="#fff"/><path d="M499.5 419.5l-16.26 16.26-16.58-16.26 16.58-16.26zm-30 0l13.73 13.44 13.44-13.44-13.44-13.44zM291.53 420.5h-1.03v-2h1.03z" fill="#83bbe5"/><g><use xlink:href="#l" transform="matrix(1,0,0,1,290.5,423.5) translate(0 14.4)"/></g><defs><path fill="#e5e5e5" d="M30-248c87 1 191-15 191 75 0 78-77 80-158 76V0H30v-248zm33 125c57 0 124 11 124-50 0-59-68-47-124-48v98" id="u"/><path fill="#e5e5e5" d="M114-163C36-179 61-72 57 0H25l-1-190h30c1 12-1 29 2 39 6-27 23-49 58-41v29" id="v"/><path fill="#e5e5e5" d="M100-194c62-1 85 37 85 99 1 63-27 99-86 99S16-35 15-95c0-66 28-99 85-99zM99-20c44 1 53-31 53-75 0-43-8-75-51-75s-53 32-53 75 10 74 51 75" id="w"/><path fill="#e5e5e5" d="M177-190C167-65 218 103 67 71c-23-6-38-20-44-43l32-5c15 47 100 32 89-28v-30C133-14 115 1 83 1 29 1 15-40 15-95c0-56 16-97 71-98 29-1 48 16 59 35 1-10 0-23 2-32h30zM94-22c36 0 50-32 50-73 0-42-14-75-50-75-39 0-46 34-46 75s6 73 46 73" id="x"/><path fill="#e5e5e5" d="M141-36C126-15 110 5 73 4 37 3 15-17 15-53c-1-64 63-63 125-63 3-35-9-54-41-54-24 1-41 7-42 31l-33-3c5-37 33-52 76-52 45 0 72 20 72 64v82c-1 20 7 32 28 27v20c-31 9-61-2-59-35zM48-53c0 20 12 33 32 33 41-3 63-29 60-74-43 2-92-5-92 41" id="y"/><path fill="#e5e5e5" d="M210-169c-67 3-38 105-44 169h-31v-121c0-29-5-50-35-48C34-165 62-65 56 0H25l-1-190h30c1 10-1 24 2 32 10-44 99-50 107 0 11-21 27-35 58-36 85-2 47 119 55 194h-31v-121c0-29-5-49-35-48" id="z"/><g id="a"><use transform="matrix(0.05,0,0,0.05,0,0)" xlink:href="#u"/><use transform="matrix(0.05,0,0,0.05,12,0)" xlink:href="#v"/><use transform="matrix(0.05,0,0,0.05,17.95,0)" xlink:href="#w"/><use transform="matrix(0.05,0,0,0.05,27.950000000000003,0)" xlink:href="#x"/><use transform="matrix(0.05,0,0,0.05,37.95,0)" xlink:href="#v"/><use transform="matrix(0.05,0,0,0.05,43.900000000000006,0)" xlink:href="#y"/><use transform="matrix(0.05,0,0,0.05,53.900000000000006,0)" xlink:href="#z"/></g><path fill="#e5e5e5" d="M118-107v75H92v-75H18v-26h74v-75h26v75h74v26h-74" id="A"/><use transform="matrix(0.05,0,0,0.05,0,0)" xlink:href="#A" id="b"/><path fill="#e5e5e5" d="M117-194c89-4 53 116 60 194h-32v-121c0-31-8-49-39-48C34-167 62-67 57 0H25l-1-190h30c1 10-1 24 2 32 11-22 29-35 61-36" id="B"/><path fill="#e5e5e5" d="M100-194c63 0 86 42 84 106H49c0 40 14 67 53 68 26 1 43-12 49-29l28 8c-11 28-37 45-77 45C44 4 14-33 15-96c1-61 26-98 85-98zm52 81c6-60-76-77-97-28-3 7-6 17-6 28h103" id="C"/><path fill="#e5e5e5" d="M33-154v-36h34v36H33zM33 0v-36h34V0H33" id="D"/><g id="c"><use transform="matrix(0.05,0,0,0.05,0,0)" xlink:href="#z"/><use transform="matrix(0.05,0,0,0.05,14.950000000000001,0)" xlink:href="#y"/><use transform="matrix(0.05,0,0,0.05,24.950000000000003,0)" xlink:href="#B"/><use transform="matrix(0.05,0,0,0.05,34.95,0)" xlink:href="#y"/><use transform="matrix(0.05,0,0,0.05,44.95,0)" xlink:href="#x"/><use transform="matrix(0.05,0,0,0.05,54.95,0)" xlink:href="#C"/><use transform="matrix(0.05,0,0,0.05,64.95,0)" xlink:href="#v"/><use transform="matrix(0.05,0,0,0.05,70.9,0)" xlink:href="#D"/></g><path fill="#e5e5e5" d="M30 0v-248h33v221h125V0H30" id="E"/><path fill="#e5e5e5" d="M24-231v-30h32v30H24zM24 0v-190h32V0H24" id="F"/><path fill="#e5e5e5" d="M106-169C34-169 62-67 57 0H25v-261h32l-1 103c12-21 28-36 61-36 89 0 53 116 60 194h-32v-121c2-32-8-49-39-48" id="G"/><path fill="#e5e5e5" d="M59-47c-2 24 18 29 38 22v24C64 9 27 4 27-40v-127H5v-23h24l9-43h21v43h35v23H59v120" id="H"/><path fill="#e5e5e5" d="M194 0L95-120 63-95V0H30v-248h33v124l119-124h40L117-140 236 0h-42" id="I"/><path fill="#e5e5e5" d="M115-194c55 1 70 41 70 98S169 2 115 4C84 4 66-9 55-30l1 105H24l-1-265h31l2 30c10-21 28-34 59-34zm-8 174c40 0 45-34 45-75s-6-73-45-74c-42 0-51 32-51 76 0 43 10 73 51 73" id="J"/><path fill="#e5e5e5" d="M240 0l2-218c-23 76-54 145-80 218h-23L58-218 59 0H30v-248h44l77 211c21-75 51-140 76-211h43V0h-30" id="K"/><g id="d"><use transform="matrix(0.05,0,0,0.05,0,0)" xlink:href="#E"/><use transform="matrix(0.05,0,0,0.05,10,0)" xlink:href="#F"/><use transform="matrix(0.05,0,0,0.05,13.949999999999998,0)" xlink:href="#x"/><use transform="matrix(0.05,0,0,0.05,23.95,0)" xlink:href="#G"/><use transform="matrix(0.05,0,0,0.05,33.95,0)" xlink:href="#H"/><use transform="matrix(0.05,0,0,0.05,38.95,0)" xlink:href="#I"/><use transform="matrix(0.05,0,0,0.05,50.95,0)" xlink:href="#C"/><use transform="matrix(0.05,0,0,0.05,60.95,0)" xlink:href="#C"/><use transform="matrix(0.05,0,0,0.05,70.95,0)" xlink:href="#J"/><use transform="matrix(0.05,0,0,0.05,80.95,0)" xlink:href="#C"/><use transform="matrix(0.05,0,0,0.05,90.95,0)" xlink:href="#v"/><use transform="matrix(0.05,0,0,0.05,96.9,0)" xlink:href="#K"/><use transform="matrix(0.05,0,0,0.05,111.85000000000001,0)" xlink:href="#y"/><use transform="matrix(0.05,0,0,0.05,121.85000000000001,0)" xlink:href="#B"/><use transform="matrix(0.05,0,0,0.05,131.85000000000002,0)" xlink:href="#y"/><use transform="matrix(0.05,0,0,0.05,141.85000000000002,0)" xlink:href="#x"/><use transform="matrix(0.05,0,0,0.05,151.85000000000002,0)" xlink:href="#C"/><use transform="matrix(0.05,0,0,0.05,161.85000000000002,0)" xlink:href="#v"/></g><path fill="#e5e5e5" d="M87 75C49 33 22-17 22-94c0-76 28-126 65-167h31c-38 41-64 92-64 168S80 34 118 75H87" id="L"/><path fill="#e5e5e5" d="M33-261c38 41 65 92 65 168S71 34 33 75H2C39 34 66-17 66-93S39-220 2-261h31" id="M"/><g id="e"><use transform="matrix(0.05,0,0,0.05,0,0)" xlink:href="#u"/><use transform="matrix(0.05,0,0,0.05,12,0)" xlink:href="#v"/><use transform="matrix(0.05,0,0,0.05,17.95,0)" xlink:href="#w"/><use transform="matrix(0.05,0,0,0.05,27.950000000000003,0)" xlink:href="#x"/><use transform="matrix(0.05,0,0,0.05,37.95,0)" xlink:href="#v"/><use transform="matrix(0.05,0,0,0.05,43.900000000000006,0)" xlink:href="#y"/><use transform="matrix(0.05,0,0,0.05,53.900000000000006,0)" xlink:href="#z"/><use transform="matrix(0.05,0,0,0.05,68.85000000000001,0)" xlink:href="#L"/><use transform="matrix(0.05,0,0,0.05,74.80000000000001,0)" xlink:href="#M"/></g><g id="f"><use transform="matrix(0.05,0,0,0.05,0,0)" xlink:href="#K"/><use transform="matrix(0.05,0,0,0.05,14.950000000000001,0)" xlink:href="#y"/><use transform="matrix(0.05,0,0,0.05,24.950000000000003,0)" xlink:href="#F"/><use transform="matrix(0.05,0,0,0.05,28.900000000000002,0)" xlink:href="#B"/><use transform="matrix(0.05,0,0,0.05,38.900000000000006,0)" xlink:href="#L"/><use transform="matrix(0.05,0,0,0.05,44.85000000000001,0)" xlink:href="#M"/></g><g id="g"><use transform="matrix(0.05,0,0,0.05,0,0)" xlink:href="#E"/><use transform="matrix(0.05,0,0,0.05,10,0)" xlink:href="#F"/><use transform="matrix(0.05,0,0,0.05,13.949999999999998,0)" xlink:href="#x"/><use transform="matrix(0.05,0,0,0.05,23.95,0)" xlink:href="#G"/><use transform="matrix(0.05,0,0,0.05,33.95,0)" xlink:href="#H"/><use transform="matrix(0.05,0,0,0.05,38.95,0)" xlink:href="#I"/><use transform="matrix(0.05,0,0,0.05,50.95,0)" xlink:href="#C"/><use transform="matrix(0.05,0,0,0.05,60.95,0)" xlink:href="#C"/><use transform="matrix(0.05,0,0,0.05,70.95,0)" xlink:href="#J"/><use transform="matrix(0.05,0,0,0.05,80.95,0)" xlink:href="#C"/><use transform="matrix(0.05,0,0,0.05,90.95,0)" xlink:href="#v"/><use transform="matrix(0.05,0,0,0.05,96.9,0)" xlink:href="#K"/><use transform="matrix(0.05,0,0,0.05,111.85000000000001,0)" xlink:href="#y"/><use transform="matrix(0.05,0,0,0.05,121.85000000000001,0)" xlink:href="#B"/><use transform="matrix(0.05,0,0,0.05,131.85000000000002,0)" xlink:href="#y"/><use transform="matrix(0.05,0,0,0.05,141.85000000000002,0)" xlink:href="#x"/><use transform="matrix(0.05,0,0,0.05,151.85000000000002,0)" xlink:href="#C"/><use transform="matrix(0.05,0,0,0.05,161.85000000000002,0)" xlink:href="#v"/></g><path fill="#e5e5e5" d="M143 0L79-87 56-68V0H24v-261h32v163l83-92h37l-77 82L181 0h-38" id="N"/><path fill="#e5e5e5" d="M135-143c-3-34-86-38-87 0 15 53 115 12 119 90S17 21 10-45l28-5c4 36 97 45 98 0-10-56-113-15-118-90-4-57 82-63 122-42 12 7 21 19 24 35" id="O"/><g id="h"><use transform="matrix(0.05,0,0,0.05,0,0)" xlink:href="#N"/><use transform="matrix(0.05,0,0,0.05,9,0)" xlink:href="#C"/><use transform="matrix(0.05,0,0,0.05,19,0)" xlink:href="#C"/><use transform="matrix(0.05,0,0,0.05,29,0)" xlink:href="#J"/><use transform="matrix(0.05,0,0,0.05,39,0)" xlink:href="#C"/><use transform="matrix(0.05,0,0,0.05,49,0)" xlink:href="#v"/><use transform="matrix(0.05,0,0,0.05,54.95,0)" xlink:href="#O"/><use transform="matrix(0.05,0,0,0.05,63.95,0)" xlink:href="#D"/></g><path fill="#e5e5e5" d="M18-100v-36l175-74v27L42-118l151 64v27" id="P"/><path fill="#e5e5e5" d="M18-27v-27l151-64-151-65v-27l175 74v36" id="Q"/><g id="i"><use transform="matrix(0.05,0,0,0.05,0,0)" xlink:href="#E"/><use transform="matrix(0.05,0,0,0.05,10,0)" xlink:href="#F"/><use transform="matrix(0.05,0,0,0.05,13.949999999999998,0)" xlink:href="#O"/><use transform="matrix(0.05,0,0,0.05,22.95,0)" xlink:href="#H"/><use transform="matrix(0.05,0,0,0.05,27.950000000000003,0)" xlink:href="#P"/><use transform="matrix(0.05,0,0,0.05,38.45,0)" xlink:href="#E"/><use transform="matrix(0.05,0,0,0.05,48.45,0)" xlink:href="#F"/><use transform="matrix(0.05,0,0,0.05,52.400000000000006,0)" xlink:href="#x"/><use transform="matrix(0.05,0,0,0.05,62.400000000000006,0)" xlink:href="#G"/><use transform="matrix(0.05,0,0,0.05,72.4,0)" xlink:href="#H"/><use transform="matrix(0.05,0,0,0.05,77.4,0)" xlink:href="#I"/><use transform="matrix(0.05,0,0,0.05,89.4,0)" xlink:href="#C"/><use transform="matrix(0.05,0,0,0.05,99.4,0)" xlink:href="#C"/><use transform="matrix(0.05,0,0,0.05,109.4,0)" xlink:href="#J"/><use transform="matrix(0.05,0,0,0.05,119.4,0)" xlink:href="#C"/><use transform="matrix(0.05,0,0,0.05,129.4,0)" xlink:href="#v"/><use transform="matrix(0.05,0,0,0.05,135.35,0)" xlink:href="#Q"/></g><path fill="#e5e5e5" d="M33 0v-248h34V0H33" id="R"/><path fill="#e5e5e5" d="M179-190L93 31C79 59 56 82 12 73V49c39 6 53-20 64-50L1-190h34L92-34l54-156h33" id="S"/><g id="j"><use transform="matrix(0.05,0,0,0.05,0,0)" xlink:href="#E"/><use transform="matrix(0.05,0,0,0.05,10,0)" xlink:href="#F"/><use transform="matrix(0.05,0,0,0.05,13.949999999999998,0)" xlink:href="#x"/><use transform="matrix(0.05,0,0,0.05,23.95,0)" xlink:href="#G"/><use transform="matrix(0.05,0,0,0.05,33.95,0)" xlink:href="#H"/><use transform="matrix(0.05,0,0,0.05,38.95,0)" xlink:href="#I"/><use transform="matrix(0.05,0,0,0.05,50.95,0)" xlink:href="#C"/><use transform="matrix(0.05,0,0,0.05,60.95,0)" xlink:href="#C"/><use transform="matrix(0.05,0,0,0.05,70.95,0)" xlink:href="#J"/><use transform="matrix(0.05,0,0,0.05,80.95,0)" xlink:href="#C"/><use transform="matrix(0.05,0,0,0.05,90.95,0)" xlink:href="#v"/><use transform="matrix(0.05,0,0,0.05,96.9,0)" xlink:href="#K"/><use transform="matrix(0.05,0,0,0.05,111.85000000000001,0)" xlink:href="#y"/><use transform="matrix(0.05,0,0,0.05,121.85000000000001,0)" xlink:href="#B"/><use transform="matrix(0.05,0,0,0.05,131.85000000000002,0)" xlink:href="#y"/><use transform="matrix(0.05,0,0,0.05,141.85000000000002,0)" xlink:href="#x"/><use transform="matrix(0.05,0,0,0.05,151.85000000000002,0)" xlink:href="#C"/><use transform="matrix(0.05,0,0,0.05,161.85000000000002,0)" xlink:href="#v"/><use transform="matrix(0.05,0,0,0.05,167.8,0)" xlink:href="#L"/><use transform="matrix(0.05,0,0,0.05,173.75,0)" xlink:href="#E"/><use transform="matrix(0.05,0,0,0.05,183.75,0)" xlink:href="#F"/><use transform="matrix(0.05,0,0,0.05,187.7,0)" xlink:href="#O"/><use transform="matrix(0.05,0,0,0.05,196.7,0)" xlink:href="#H"/><use transform="matrix(0.05,0,0,0.05,201.7,0)" xlink:href="#P"/><use transform="matrix(0.05,0,0,0.05,212.19999999999996,0)" xlink:href="#R"/><use transform="matrix(0.05,0,0,0.05,217.19999999999996,0)" xlink:href="#K"/><use transform="matrix(0.05,0,0,0.05,232.14999999999998,0)" xlink:href="#S"/><use transform="matrix(0.05,0,0,0.05,241.14999999999998,0)" xlink:href="#R"/><use transform="matrix(0.05,0,0,0.05,246.14999999999998,0)" xlink:href="#B"/><use transform="matrix(0.05,0,0,0.05,256.15,0)" xlink:href="#H"/><use transform="matrix(0.05,0,0,0.05,261.15,0)" xlink:href="#C"/><use transform="matrix(0.05,0,0,0.05,271.15,0)" xlink:href="#v"/><use transform="matrix(0.05,0,0,0.05,277.09999999999997,0)" xlink:href="#F"/><use transform="matrix(0.05,0,0,0.05,281.04999999999995,0)" xlink:href="#w"/><use transform="matrix(0.05,0,0,0.05,291.04999999999995,0)" xlink:href="#v"/><use transform="matrix(0.05,0,0,0.05,296.99999999999994,0)" xlink:href="#E"/><use transform="matrix(0.05,0,0,0.05,306.99999999999994,0)" xlink:href="#F"/><use transform="matrix(0.05,0,0,0.05,310.94999999999993,0)" xlink:href="#x"/><use transform="matrix(0.05,0,0,0.05,320.94999999999993,0)" xlink:href="#G"/><use transform="matrix(0.05,0,0,0.05,330.94999999999993,0)" xlink:href="#H"/><use transform="matrix(0.05,0,0,0.05,335.94999999999993,0)" xlink:href="#Q"/><use transform="matrix(0.05,0,0,0.05,346.44999999999993,0)" xlink:href="#M"/></g><path fill="#e5e5e5" d="M96-169c-40 0-48 33-48 73s9 75 48 75c24 0 41-14 43-38l32 2c-6 37-31 61-74 61-59 0-76-41-82-99-10-93 101-131 147-64 4 7 5 14 7 22l-32 3c-4-21-16-35-41-35" id="T"/><g id="k"><use transform="matrix(0.05,0,0,0.05,0,0)" xlink:href="#H"/><use transform="matrix(0.05,0,0,0.05,5,0)" xlink:href="#F"/><use transform="matrix(0.05,0,0,0.05,8.95,0)" xlink:href="#T"/><use transform="matrix(0.05,0,0,0.05,17.95,0)" xlink:href="#N"/><use transform="matrix(0.05,0,0,0.05,26.950000000000003,0)" xlink:href="#L"/><use transform="matrix(0.05,0,0,0.05,32.9,0)" xlink:href="#M"/></g><path fill="#fff" d="M27 0v-27h64v-190l-56 39v-29l58-41h29v221h61V0H27" id="U"/><use transform="matrix(0.05,0,0,0.05,0,0)" xlink:href="#U" id="l"/><g id="m"><use transform="matrix(0.05,0,0,0.05,0,0)" xlink:href="#E"/><use transform="matrix(0.05,0,0,0.05,10,0)" xlink:href="#F"/><use transform="matrix(0.05,0,0,0.05,13.949999999999998,0)" xlink:href="#x"/><use transform="matrix(0.05,0,0,0.05,23.95,0)" xlink:href="#G"/><use transform="matrix(0.05,0,0,0.05,33.95,0)" xlink:href="#H"/><use transform="matrix(0.05,0,0,0.05,38.95,0)" xlink:href="#I"/><use transform="matrix(0.05,0,0,0.05,50.95,0)" xlink:href="#C"/><use transform="matrix(0.05,0,0,0.05,60.95,0)" xlink:href="#C"/><use transform="matrix(0.05,0,0,0.05,70.95,0)" xlink:href="#J"/><use transform="matrix(0.05,0,0,0.05,80.95,0)" xlink:href="#C"/><use transform="matrix(0.05,0,0,0.05,90.95,0)" xlink:href="#v"/></g><path fill="#e5e5e5" d="M24 0v-261h32V0H24" id="V"/><g id="n"><use transform="matrix(0.05,0,0,0.05,0,0)" xlink:href="#V"/><use transform="matrix(0.05,0,0,0.05,3.95,0)" xlink:href="#F"/><use transform="matrix(0.05,0,0,0.05,7.9,0)" xlink:href="#x"/><use transform="matrix(0.05,0,0,0.05,17.9,0)" xlink:href="#G"/><use transform="matrix(0.05,0,0,0.05,27.899999999999995,0)" xlink:href="#H"/><use transform="matrix(0.05,0,0,0.05,32.9,0)" xlink:href="#D"/></g><g id="o"><use transform="matrix(0.05,0,0,0.05,0,0)" xlink:href="#R"/><use transform="matrix(0.05,0,0,0.05,5,0)" xlink:href="#K"/><use transform="matrix(0.05,0,0,0.05,19.950000000000003,0)" xlink:href="#S"/><use transform="matrix(0.05,0,0,0.05,28.950000000000003,0)" xlink:href="#R"/><use transform="matrix(0.05,0,0,0.05,33.95,0)" xlink:href="#B"/><use transform="matrix(0.05,0,0,0.05,43.95,0)" xlink:href="#H"/><use transform="matrix(0.05,0,0,0.05,48.95,0)" xlink:href="#C"/><use transform="matrix(0.05,0,0,0.05,58.95,0)" xlink:href="#v"/><use transform="matrix(0.05,0,0,0.05,64.9,0)" xlink:href="#F"/><use transform="matrix(0.05,0,0,0.05,68.85000000000001,0)" xlink:href="#w"/><use transform="matrix(0.05,0,0,0.05,78.85000000000001,0)" xlink:href="#v"/><use transform="matrix(0.05,0,0,0.05,84.80000000000001,0)" xlink:href="#E"/><use transform="matrix(0.05,0,0,0.05,94.80000000000001,0)" xlink:href="#F"/><use transform="matrix(0.05,0,0,0.05,98.75000000000001,0)" xlink:href="#x"/><use transform="matrix(0.05,0,0,0.05,108.75,0)" xlink:href="#G"/><use transform="matrix(0.05,0,0,0.05,118.75,0)" xlink:href="#H"/></g><g id="p"><use transform="matrix(0.05,0,0,0.05,0,0)" xlink:href="#F"/><use transform="matrix(0.05,0,0,0.05,3.95,0)" xlink:href="#B"/><use transform="matrix(0.05,0,0,0.05,13.949999999999998,0)" xlink:href="#T"/><use transform="matrix(0.05,0,0,0.05,22.95,0)" xlink:href="#v"/><use transform="matrix(0.05,0,0,0.05,28.899999999999995,0)" xlink:href="#C"/><use transform="matrix(0.05,0,0,0.05,38.9,0)" xlink:href="#z"/><use transform="matrix(0.05,0,0,0.05,53.85,0)" xlink:href="#C"/><use transform="matrix(0.05,0,0,0.05,63.85,0)" xlink:href="#B"/><use transform="matrix(0.05,0,0,0.05,73.85,0)" xlink:href="#H"/><use transform="matrix(0.05,0,0,0.05,78.85,0)" xlink:href="#D"/></g><g id="q"><use transform="matrix(0.05,0,0,0.05,0,0)" xlink:href="#F"/><use transform="matrix(0.05,0,0,0.05,3.95,0)" xlink:href="#B"/><use transform="matrix(0.05,0,0,0.05,13.949999999999998,0)" xlink:href="#H"/></g><g id="r"><use transform="matrix(0.05,0,0,0.05,0,0)" xlink:href="#E"/><use transform="matrix(0.05,0,0,0.05,10,0)" xlink:href="#F"/><use transform="matrix(0.05,0,0,0.05,13.949999999999998,0)" xlink:href="#x"/><use transform="matrix(0.05,0,0,0.05,23.95,0)" xlink:href="#G"/><use transform="matrix(0.05,0,0,0.05,33.95,0)" xlink:href="#H"/><use transform="matrix(0.05,0,0,0.05,38.95,0)" xlink:href="#I"/><use transform="matrix(0.05,0,0,0.05,50.95,0)" xlink:href="#C"/><use transform="matrix(0.05,0,0,0.05,60.95,0)" xlink:href="#C"/><use transform="matrix(0.05,0,0,0.05,70.95,0)" xlink:href="#J"/><use transform="matrix(0.05,0,0,0.05,80.95,0)" xlink:href="#C"/><use transform="matrix(0.05,0,0,0.05,90.95,0)" xlink:href="#v"/><use transform="matrix(0.05,0,0,0.05,96.9,0)" xlink:href="#L"/><use transform="matrix(0.05,0,0,0.05,102.85000000000001,0)" xlink:href="#R"/><use transform="matrix(0.05,0,0,0.05,107.85000000000001,0)" xlink:href="#K"/><use transform="matrix(0.05,0,0,0.05,122.80000000000001,0)" xlink:href="#S"/><use transform="matrix(0.05,0,0,0.05,131.8,0)" xlink:href="#R"/><use transform="matrix(0.05,0,0,0.05,136.8,0)" xlink:href="#B"/><use transform="matrix(0.05,0,0,0.05,146.8,0)" xlink:href="#H"/><use transform="matrix(0.05,0,0,0.05,151.8,0)" xlink:href="#C"/><use transform="matrix(0.05,0,0,0.05,161.8,0)" xlink:href="#v"/><use transform="matrix(0.05,0,0,0.05,167.75,0)" xlink:href="#F"/><use transform="matrix(0.05,0,0,0.05,171.7,0)" xlink:href="#w"/><use transform="matrix(0.05,0,0,0.05,181.7,0)" xlink:href="#v"/><use transform="matrix(0.05,0,0,0.05,187.64999999999998,0)" xlink:href="#E"/><use transform="matrix(0.05,0,0,0.05,197.64999999999998,0)" xlink:href="#F"/><use transform="matrix(0.05,0,0,0.05,201.59999999999997,0)" xlink:href="#x"/><use transform="matrix(0.05,0,0,0.05,211.59999999999997,0)" xlink:href="#G"/><use transform="matrix(0.05,0,0,0.05,221.59999999999997,0)" xlink:href="#H"/><use transform="matrix(0.05,0,0,0.05,226.59999999999997,0)" xlink:href="#M"/></g><path fill="#fff" d="M101-251c68 0 85 55 85 127S166 4 100 4C33 4 14-52 14-124c0-73 17-127 87-127zm-1 229c47 0 54-49 54-102s-4-102-53-102c-51 0-55 48-55 102 0 53 5 102 54 102" id="W"/><path fill="#fff" d="M33 0v-38h34V0H33" id="X"/><path fill="#fff" d="M80-196l47-18 7 23-49 13 32 44-20 13-27-46-27 45-21-12 33-44-49-13 8-23 47 19-2-53h23" id="Y"/><g id="s"><use transform="matrix(0.05,0,0,0.05,0,0)" xlink:href="#W"/><use transform="matrix(0.05,0,0,0.05,10,0)" xlink:href="#X"/><use transform="matrix(0.05,0,0,0.05,15,0)" xlink:href="#X"/><use transform="matrix(0.05,0,0,0.05,20,0)" xlink:href="#Y"/></g><g id="t"><use transform="matrix(0.05,0,0,0.05,0,0)" xlink:href="#R"/><use transform="matrix(0.05,0,0,0.05,5,0)" xlink:href="#K"/><use transform="matrix(0.05,0,0,0.05,19.950000000000003,0)" xlink:href="#S"/><use transform="matrix(0.05,0,0,0.05,28.950000000000003,0)" xlink:href="#R"/><use transform="matrix(0.05,0,0,0.05,33.95,0)" xlink:href="#B"/><use transform="matrix(0.05,0,0,0.05,43.95,0)" xlink:href="#H"/><use transform="matrix(0.05,0,0,0.05,48.95,0)" xlink:href="#C"/><use transform="matrix(0.05,0,0,0.05,58.95,0)" xlink:href="#v"/><use transform="matrix(0.05,0,0,0.05,64.9,0)" xlink:href="#F"/><use transform="matrix(0.05,0,0,0.05,68.85000000000001,0)" xlink:href="#w"/><use transform="matrix(0.05,0,0,0.05,78.85000000000001,0)" xlink:href="#v"/><use transform="matrix(0.05,0,0,0.05,84.80000000000001,0)" xlink:href="#E"/><use transform="matrix(0.05,0,0,0.05,94.80000000000001,0)" xlink:href="#F"/><use transform="matrix(0.05,0,0,0.05,98.75000000000001,0)" xlink:href="#x"/><use transform="matrix(0.05,0,0,0.05,108.75,0)" xlink:href="#G"/><use transform="matrix(0.05,0,0,0.05,118.75,0)" xlink:href="#H"/></g></defs></g></svg>